<?xml version="1.0" encoding="UTF-8"?>
<!DOCTYPE svg PUBLIC "-//W3C//DTD SVG 1.1//EN" "http://www.w3.org/Graphics/SVG/1.1/DTD/svg11.dtd">
<svg xmlns="http://www.w3.org/2000/svg" version="1.1" width="285px" height="356px" style="shape-rendering:geometricPrecision; text-rendering:geometricPrecision; image-rendering:optimizeQuality; fill-rule:evenodd; clip-rule:evenodd" xmlns:xlink="http://www.w3.org/1999/xlink">
<g><path style="opacity:1" fill="#ca73c8" d="M 252.5,9.5 C 242.588,15.4694 232.921,21.9694 223.5,29C 213.223,38.2755 203.223,47.9422 193.5,58C 191.066,58.3329 190.066,57.1662 190.5,54.5C 195.153,48.9564 200.486,43.9564 206.5,39.5C 207.316,37.7127 208.316,36.0461 209.5,34.5C 213.22,34.1133 215.22,32.1133 215.5,28.5C 219.112,27.7324 222.112,25.8991 224.5,23C 223.072,22.4209 221.738,22.5876 220.5,23.5C 220.47,22.5028 220.97,21.8361 222,21.5C 232.289,17.5979 242.455,13.5979 252.5,9.5 Z"/></g>
<g><path style="opacity:1" fill="#c873c6" d="M 279.5,10.5 C 279.5,10.8333 279.5,11.1667 279.5,11.5C 275.566,18.5224 271.233,25.3557 266.5,32C 266.833,32.3333 267.167,32.6667 267.5,33C 261.049,40.7385 255.216,48.9052 250,57.5C 249.586,57.0426 249.086,56.7093 248.5,56.5C 245.374,63.3121 241.374,69.6455 236.5,75.5C 235.311,76.4287 233.978,76.762 232.5,76.5C 230.911,74.6944 228.911,73.3611 226.5,72.5C 228.665,71.1196 228.999,69.4529 227.5,67.5C 245.212,54.1209 259.712,37.7875 271,18.5C 273.915,15.9063 276.749,13.2396 279.5,10.5 Z"/></g>
<g><path style="opacity:0.204" fill="#b468b2" d="M 282.5,10.5 C 281.5,10.5 280.5,10.5 279.5,10.5C 279.672,9.50838 279.338,8.84171 278.5,8.5C 277.737,7.73209 276.737,7.23209 275.5,7C 275.957,6.58605 276.291,6.08605 276.5,5.5C 270.812,4.05664 265.479,4.7233 260.5,7.5C 257.673,7.58378 255.006,8.25045 252.5,9.5C 242.455,13.5979 232.289,17.5979 222,21.5C 220.97,21.8361 220.47,22.5028 220.5,23.5C 219.127,23.3433 217.793,23.51 216.5,24C 214.909,26.1326 212.909,27.7993 210.5,29C 206.481,30.3949 202.814,32.2283 199.5,34.5C 192.296,38.5969 185.296,42.9302 178.5,47.5C 178.5,46.8333 178.5,46.1667 178.5,45.5C 204.681,25.743 233.681,11.243 265.5,2C 269.5,1.33333 273.5,1.33333 277.5,2C 280.596,4.02869 282.262,6.86203 282.5,10.5 Z"/></g>
<g><path style="opacity:1" fill="#c56dc3" d="M 279.5,11.5 C 279.5,12.1667 279.5,12.8333 279.5,13.5C 279.276,17.1788 278.942,20.8455 278.5,24.5C 277.71,23.3915 277.21,22.0581 277,20.5C 276.625,23.0001 275.792,25.3334 274.5,27.5C 271.092,32.882 267.592,38.2154 264,43.5C 262.529,47.6534 260.196,51.3201 257,54.5C 256.253,59.9936 253.92,64.6602 250,68.5C 249.236,72.3546 247.736,75.8546 245.5,79C 245.957,79.414 246.291,79.914 246.5,80.5C 244.766,82.234 243.432,84.234 242.5,86.5C 240.833,85.1667 239.167,85.1667 237.5,86.5C 236.576,84.6095 235.243,83.1095 233.5,82C 232.563,81.3083 231.897,81.475 231.5,82.5C 229.419,81.2727 227.419,79.7727 225.5,78C 223.846,77.3923 222.179,76.8923 220.5,76.5C 219.251,74.8639 217.584,73.6972 215.5,73C 214.304,72.3457 214.304,71.8457 215.5,71.5C 221.107,72.8966 226.441,74.8966 231.5,77.5C 232.107,77.3764 232.44,77.0431 232.5,76.5C 233.978,76.762 235.311,76.4287 236.5,75.5C 241.374,69.6455 245.374,63.3121 248.5,56.5C 249.086,56.7093 249.586,57.0426 250,57.5C 255.216,48.9052 261.049,40.7385 267.5,33C 267.167,32.6667 266.833,32.3333 266.5,32C 271.233,25.3557 275.566,18.5224 279.5,11.5 Z"/></g>
<g><path style="opacity:1" fill="#c76dc4" d="M 190.5,54.5 C 184.949,59.745 180.949,66.0783 178.5,73.5C 181.05,72.9099 183.717,72.9099 186.5,73.5C 181.85,75.1605 177.85,77.8272 174.5,81.5C 174.859,79.629 175.859,78.129 177.5,77C 173.768,78.4661 170.268,80.6328 167,83.5C 168.43,81.2899 168.93,78.9566 168.5,76.5C 169.23,75.2876 170.23,74.2876 171.5,73.5C 170.691,71.9291 170.357,70.2624 170.5,68.5C 171.5,68.5 172.5,68.5 173.5,68.5C 173.833,66.5 174.167,64.5 174.5,62.5C 183.85,53.9808 192.85,44.8141 201.5,35C 200.906,34.5357 200.239,34.369 199.5,34.5C 202.814,32.2283 206.481,30.3949 210.5,29C 212.909,27.7993 214.909,26.1326 216.5,24C 217.793,23.51 219.127,23.3433 220.5,23.5C 221.738,22.5876 223.072,22.4209 224.5,23C 222.112,25.8991 219.112,27.7324 215.5,28.5C 215.22,32.1133 213.22,34.1133 209.5,34.5C 208.316,36.0461 207.316,37.7127 206.5,39.5C 200.486,43.9564 195.153,48.9564 190.5,54.5 Z"/></g>
<g><path style="opacity:1" fill="#cb79c8" d="M 278.5,8.5 C 279.338,8.84171 279.672,9.50838 279.5,10.5C 276.749,13.2396 273.915,15.9063 271,18.5C 259.712,37.7875 245.212,54.1209 227.5,67.5C 225.031,68.5686 222.698,69.9019 220.5,71.5C 215.065,70.3501 209.732,69.3501 204.5,68.5C 209.232,68.6224 213.898,68.1224 218.5,67C 224.674,61.6117 231.341,56.945 238.5,53C 242.863,48.7263 247.363,44.5597 252,40.5C 259.655,31.1651 266.988,21.4984 274,11.5C 275.615,10.6138 277.115,9.61381 278.5,8.5 Z"/></g>
<g><path style="opacity:1" fill="#c168be" d="M 278.5,24.5 C 277.983,28.2217 277.15,31.8883 276,35.5C 275.8,37.3197 274.966,38.653 273.5,39.5C 263.465,56.9027 254.298,75.2361 246,94.5C 243.802,96.3751 241.969,96.3751 240.5,94.5C 239.083,96.8345 238.083,99.3345 237.5,102C 238.762,109.319 238.762,116.486 237.5,123.5C 238.183,113.601 237.016,103.934 234,94.5C 233.25,93.8742 232.416,93.3742 231.5,93C 231.93,92.0805 232.264,91.2472 232.5,90.5C 233.833,91.5 235.167,92.5 236.5,93.5C 237.856,90.5926 237.19,88.2593 234.5,86.5C 233.5,85.1667 232.5,83.8333 231.5,82.5C 231.897,81.475 232.563,81.3083 233.5,82C 235.243,83.1095 236.576,84.6095 237.5,86.5C 239.167,85.1667 240.833,85.1667 242.5,86.5C 243.432,84.234 244.766,82.234 246.5,80.5C 246.291,79.914 245.957,79.414 245.5,79C 247.736,75.8546 249.236,72.3546 250,68.5C 253.92,64.6602 256.253,59.9936 257,54.5C 260.196,51.3201 262.529,47.6534 264,43.5C 267.592,38.2154 271.092,32.882 274.5,27.5C 275.792,25.3334 276.625,23.0001 277,20.5C 277.21,22.0581 277.71,23.3915 278.5,24.5 Z"/></g>
<g><path style="opacity:1" fill="#ad4fa8" d="M 279.5,10.5 C 280.5,10.5 281.5,10.5 282.5,10.5C 283.219,12.7638 283.552,15.0971 283.5,17.5C 281.535,24.7605 280.868,32.4271 281.5,40.5C 279.033,59.2012 273.866,77.2012 266,94.5C 263.123,98.9204 260.79,103.587 259,108.5C 255.2,112.739 251.867,117.406 249,122.5C 244.953,124.469 242.953,123.136 243,118.5C 242.722,119.416 242.222,120.082 241.5,120.5C 241.84,116.452 242.506,112.452 243.5,108.5C 244.799,109.09 245.632,110.09 246,111.5C 248.683,106.39 251.85,101.556 255.5,97C 260.454,86.9248 265.287,76.7581 270,66.5C 272.75,53.6713 276.083,41.0047 280,28.5C 280.816,23.3158 280.65,18.3158 279.5,13.5C 279.5,12.8333 279.5,12.1667 279.5,11.5C 279.5,11.1667 279.5,10.8333 279.5,10.5 Z"/></g>
<g><path style="opacity:1" fill="#c467c1" d="M 199.5,34.5 C 200.239,34.369 200.906,34.5357 201.5,35C 192.85,44.8141 183.85,53.9808 174.5,62.5C 174.167,64.5 173.833,66.5 173.5,68.5C 172.5,68.5 171.5,68.5 170.5,68.5C 170.357,70.2624 170.691,71.9291 171.5,73.5C 170.23,74.2876 169.23,75.2876 168.5,76.5C 167.466,75.3129 166.133,74.4796 164.5,74C 165.624,73.7508 166.624,73.2508 167.5,72.5C 167.167,72.1667 166.833,71.8333 166.5,71.5C 165.264,72.2458 163.93,72.5792 162.5,72.5C 162.586,71.5041 162.252,70.6708 161.5,70C 164.917,65.1732 168.25,60.8399 171.5,57C 173.329,56.7265 174.829,55.8932 176,54.5C 176.528,53.184 176.028,52.5173 174.5,52.5C 175.75,50.8459 177.084,49.1793 178.5,47.5C 185.296,42.9302 192.296,38.5969 199.5,34.5 Z"/></g>
<g><path style="opacity:1" fill="#cd80cb" d="M 278.5,8.5 C 277.115,9.61381 275.615,10.6138 274,11.5C 266.988,21.4984 259.655,31.1651 252,40.5C 247.363,44.5597 242.863,48.7263 238.5,53C 231.341,56.945 224.674,61.6117 218.5,67C 213.898,68.1224 209.232,68.6224 204.5,68.5C 201.813,68.6641 199.146,68.4974 196.5,68C 195.572,67.6121 194.905,66.9454 194.5,66C 196.307,62.5155 198.14,59.0155 200,55.5C 210.18,45.2841 220.68,35.4508 231.5,26C 235.071,23.5794 238.738,21.4127 242.5,19.5C 248.5,15.5 254.5,11.5 260.5,7.5C 265.479,4.7233 270.812,4.05664 276.5,5.5C 276.291,6.08605 275.957,6.58605 275.5,7C 276.737,7.23209 277.737,7.73209 278.5,8.5 Z"/></g>
<g><path style="opacity:1" fill="#ce86cd" d="M 269.5,13.5 C 258.3,32.5318 242.967,47.3652 223.5,58C 218.698,59.59 214.364,61.9233 210.5,65C 208.527,65.4955 206.527,65.6621 204.5,65.5C 204.89,62.1606 205.39,58.8273 206,55.5C 210.027,52.1342 213.36,48.1342 216,43.5C 219.519,40.3839 223.019,37.3839 226.5,34.5C 222.902,40.103 218.902,45.4364 214.5,50.5C 213.605,52.2464 212.938,54.0797 212.5,56C 212.613,57.2798 213.28,58.1131 214.5,58.5C 231.3,51.5547 245.8,41.2213 258,27.5C 258.464,26.9056 258.631,26.2389 258.5,25.5C 262.167,21.5 265.833,17.5 269.5,13.5 Z"/></g>
<g><path style="opacity:1" fill="#cf8ccd" d="M 269.5,13.5 C 265.833,17.5 262.167,21.5 258.5,25.5C 258.631,26.2389 258.464,26.9056 258,27.5C 245.8,41.2213 231.3,51.5547 214.5,58.5C 213.28,58.1131 212.613,57.2798 212.5,56C 212.938,54.0797 213.605,52.2464 214.5,50.5C 218.902,45.4364 222.902,40.103 226.5,34.5C 231.833,29.5 237.167,24.5 242.5,19.5C 245.864,20.2107 248.197,19.044 249.5,16C 256.391,13.3047 263.224,10.4714 270,7.5C 270.5,7.83333 271,8.16667 271.5,8.5C 270.544,10.0754 269.877,11.742 269.5,13.5 Z"/></g>
<g><path style="opacity:1" fill="#d094cf" d="M 258.5,25.5 C 251.165,32.1617 243.499,38.495 235.5,44.5C 230.93,46.428 226.43,48.428 222,50.5C 221.5,50.1667 221,49.8333 220.5,49.5C 224.848,41.975 230.181,35.1416 236.5,29C 242.084,25.7586 247.417,22.0919 252.5,18C 256.381,15.8928 260.381,14.0595 264.5,12.5C 266.101,13.0347 266.601,14.0347 266,15.5C 262.489,18.1642 259.989,21.4976 258.5,25.5 Z"/></g>
<g><path style="opacity:1" fill="#a448a1" d="M 281.5,40.5 C 280.916,50.8392 280.249,61.1725 279.5,71.5C 276.758,72.5578 276.091,74.3911 277.5,77C 274.832,84.3285 272.665,91.8285 271,99.5C 270.333,100.833 269.667,100.833 269,99.5C 268.591,103.297 267.758,106.964 266.5,110.5C 265.5,110.5 264.5,110.5 263.5,110.5C 263.322,113.216 262.822,115.883 262,118.5C 260.113,120.026 259.113,122.026 259,124.5C 254.544,128.279 251.044,132.612 248.5,137.5C 245.15,137.665 241.817,137.498 238.5,137C 240.037,134.687 240.537,132.187 240,129.5C 235.213,136.288 229.713,142.454 223.5,148C 221.091,149.707 218.425,150.54 215.5,150.5C 217.942,148.774 220.609,147.274 223.5,146C 227.399,141.004 231.399,136.171 235.5,131.5C 237.935,127.942 239.268,123.942 239.5,119.5C 240.167,119.833 240.833,120.167 241.5,120.5C 242.222,120.082 242.722,119.416 243,118.5C 242.953,123.136 244.953,124.469 249,122.5C 251.867,117.406 255.2,112.739 259,108.5C 260.79,103.587 263.123,98.9204 266,94.5C 273.866,77.2012 279.033,59.2012 281.5,40.5 Z"/></g>
<g><path style="opacity:0.235" fill="#a857a9" d="M 178.5,45.5 C 178.5,46.1667 178.5,46.8333 178.5,47.5C 177.084,49.1793 175.75,50.8459 174.5,52.5C 172.692,53.9073 170.692,55.074 168.5,56C 163.8,60.9772 158.8,65.4772 153.5,69.5C 148.352,74.0688 143.686,79.0688 139.5,84.5C 138.833,84.8333 138.167,85.1667 137.5,85.5C 137.158,84.6618 136.492,84.3284 135.5,84.5C 148.235,69.7664 162.568,56.7664 178.5,45.5 Z"/></g>
<g><path style="opacity:1" fill="#b55abc" d="M 153.5,69.5 C 154.5,69.5 155.5,69.5 156.5,69.5C 157.055,73.3872 155.721,76.3872 152.5,78.5C 152.709,79.086 153.043,79.586 153.5,80C 152.234,80.3095 151.067,80.8095 150,81.5C 145.5,89.8325 141,98.1658 136.5,106.5C 131.867,115.093 127.201,123.76 122.5,132.5C 122.242,130.81 122.242,128.81 122.5,126.5C 124.173,119.49 127.173,113.157 131.5,107.5C 130.674,106.549 130.508,105.549 131,104.5C 133.479,100.361 136.313,96.528 139.5,93C 138.833,92.6667 138.167,92.3333 137.5,92C 139.017,89.7955 140.35,87.4622 141.5,85C 140.906,84.5357 140.239,84.369 139.5,84.5C 143.686,79.0688 148.352,74.0688 153.5,69.5 Z"/></g>
<g><path style="opacity:1" fill="#ca75c7" d="M 260.5,7.5 C 254.5,11.5 248.5,15.5 242.5,19.5C 238.738,21.4127 235.071,23.5794 231.5,26C 220.68,35.4508 210.18,45.2841 200,55.5C 198.14,59.0155 196.307,62.5155 194.5,66C 194.905,66.9454 195.572,67.6121 196.5,68C 199.146,68.4974 201.813,68.6641 204.5,68.5C 209.732,69.3501 215.065,70.3501 220.5,71.5C 222.698,69.9019 225.031,68.5686 227.5,67.5C 228.999,69.4529 228.665,71.1196 226.5,72.5C 228.911,73.3611 230.911,74.6944 232.5,76.5C 232.44,77.0431 232.107,77.3764 231.5,77.5C 226.441,74.8966 221.107,72.8966 215.5,71.5C 214.304,71.8457 214.304,72.3457 215.5,73C 217.584,73.6972 219.251,74.8639 220.5,76.5C 219.167,76.1667 217.833,75.8333 216.5,75.5C 208.666,71.7296 200.332,70.563 191.5,72C 189.975,73.0086 188.308,73.5086 186.5,73.5C 183.717,72.9099 181.05,72.9099 178.5,73.5C 180.949,66.0783 184.949,59.745 190.5,54.5C 190.066,57.1662 191.066,58.3329 193.5,58C 203.223,47.9422 213.223,38.2755 223.5,29C 232.921,21.9694 242.588,15.4694 252.5,9.5C 255.006,8.25045 257.673,7.58378 260.5,7.5 Z"/></g>
<g><path style="opacity:1" fill="#bc67c0" d="M 168.5,76.5 C 168.93,78.9566 168.43,81.2899 167,83.5C 170.268,80.6328 173.768,78.4661 177.5,77C 175.859,78.129 174.859,79.629 174.5,81.5C 173.527,81.9867 172.527,82.4867 171.5,83C 169.267,85.9958 166.934,88.8292 164.5,91.5C 165.028,90.1526 165.195,88.8193 165,87.5C 163.951,89.6175 162.451,91.2842 160.5,92.5C 160.631,91.6236 160.298,90.9569 159.5,90.5C 153.947,94.9705 149.281,100.304 145.5,106.5C 144.675,107.386 143.675,107.719 142.5,107.5C 138.677,115.816 134.343,123.816 129.5,131.5C 128.662,131.158 128.328,130.492 128.5,129.5C 131.538,124.075 134.205,118.408 136.5,112.5C 139.975,106.897 143.475,101.231 147,95.5C 149.76,92.7255 152.76,90.3922 156,88.5C 156.414,88.9574 156.914,89.2907 157.5,89.5C 158.273,87.187 158.94,84.8537 159.5,82.5C 160.325,81.6143 161.325,81.281 162.5,81.5C 162.66,79.8008 162.494,78.1341 162,76.5C 161.111,77.8882 160.611,77.7215 160.5,76C 160.978,74.6974 161.645,73.5307 162.5,72.5C 163.93,72.5792 165.264,72.2458 166.5,71.5C 166.833,71.8333 167.167,72.1667 167.5,72.5C 166.624,73.2508 165.624,73.7508 164.5,74C 166.133,74.4796 167.466,75.3129 168.5,76.5 Z"/></g>
<g><path style="opacity:1" fill="#c371c2" d="M 216.5,75.5 C 217.833,75.8333 219.167,76.1667 220.5,76.5C 222.179,76.8923 223.846,77.3923 225.5,78C 227.419,79.7727 229.419,81.2727 231.5,82.5C 232.5,83.8333 233.5,85.1667 234.5,86.5C 235.028,87.8474 235.195,89.1807 235,90.5C 232.526,87.6439 229.526,85.6439 226,84.5C 223.399,87.3042 221.899,86.9708 221.5,83.5C 217.831,83.6682 214.498,82.6682 211.5,80.5C 210.476,81.8532 209.143,82.5198 207.5,82.5C 189.868,81.982 177.201,89.6487 169.5,105.5C 168.264,106.246 166.93,106.579 165.5,106.5C 165.219,110.188 164.719,113.855 164,117.5C 162.658,118.902 161.824,118.569 161.5,116.5C 160.431,111.2 160.264,105.866 161,100.5C 161.278,99.5842 161.778,98.9175 162.5,98.5C 161.779,101.817 161.612,105.151 162,108.5C 165.024,98.9458 170.191,90.7792 177.5,84C 188.889,76.6933 201.055,74.86 214,78.5C 218.268,79.0773 219.101,78.0773 216.5,75.5 Z"/></g>
<g><path style="opacity:1" fill="#bb60bf" d="M 174.5,52.5 C 176.028,52.5173 176.528,53.184 176,54.5C 174.829,55.8932 173.329,56.7265 171.5,57C 168.25,60.8399 164.917,65.1732 161.5,70C 162.252,70.6708 162.586,71.5041 162.5,72.5C 161.645,73.5307 160.978,74.6974 160.5,76C 160.611,77.7215 161.111,77.8882 162,76.5C 162.494,78.1341 162.66,79.8008 162.5,81.5C 161.325,81.281 160.325,81.6143 159.5,82.5C 158.94,84.8537 158.273,87.187 157.5,89.5C 156.914,89.2907 156.414,88.9574 156,88.5C 152.76,90.3922 149.76,92.7255 147,95.5C 143.475,101.231 139.975,106.897 136.5,112.5C 135.725,110.612 135.725,108.612 136.5,106.5C 141,98.1658 145.5,89.8325 150,81.5C 151.067,80.8095 152.234,80.3095 153.5,80C 153.043,79.586 152.709,79.086 152.5,78.5C 155.721,76.3872 157.055,73.3872 156.5,69.5C 155.5,69.5 154.5,69.5 153.5,69.5C 158.8,65.4772 163.8,60.9772 168.5,56C 170.692,55.074 172.692,53.9073 174.5,52.5 Z"/></g>
<g><path style="opacity:1" fill="#bb60b8" d="M 273.5,39.5 C 272.862,41.46 272.862,43.2933 273.5,45C 269.714,52.7417 265.547,60.2417 261,67.5C 258.771,77.278 255.438,86.6113 251,95.5C 249.542,97.96 247.709,100.127 245.5,102C 243.887,102.089 242.72,101.255 242,99.5C 241.04,101.98 240.207,104.48 239.5,107C 239.697,111.015 239.697,115.182 239.5,119.5C 239.268,123.942 237.935,127.942 235.5,131.5C 235.833,129.5 236.167,127.5 236.5,125.5C 237.338,125.158 237.672,124.492 237.5,123.5C 238.762,116.486 238.762,109.319 237.5,102C 238.083,99.3345 239.083,96.8345 240.5,94.5C 241.969,96.3751 243.802,96.3751 246,94.5C 254.298,75.2361 263.465,56.9027 273.5,39.5 Z"/></g>
<g><path style="opacity:0.293" fill="#8e388b" d="M 283.5,17.5 C 283.263,18.791 283.596,19.791 284.5,20.5C 284.5,31.5 284.5,42.5 284.5,53.5C 283.334,67.1095 281.501,80.7762 279,94.5C 275.784,107.364 271.951,120.031 267.5,132.5C 266.778,132.082 266.278,131.416 266,130.5C 265.617,131.056 265.117,131.389 264.5,131.5C 272.135,112.242 277.135,92.242 279.5,71.5C 280.249,61.1725 280.916,50.8392 281.5,40.5C 280.868,32.4271 281.535,24.7605 283.5,17.5 Z"/></g>
<g><path style="opacity:1" fill="#c87dc9" d="M 216.5,75.5 C 219.101,78.0773 218.268,79.0773 214,78.5C 201.055,74.86 188.889,76.6933 177.5,84C 170.191,90.7792 165.024,98.9458 162,108.5C 161.612,105.151 161.779,101.817 162.5,98.5C 163.167,96.1667 163.833,93.8333 164.5,91.5C 166.934,88.8292 169.267,85.9958 171.5,83C 172.527,82.4867 173.527,81.9867 174.5,81.5C 177.85,77.8272 181.85,75.1605 186.5,73.5C 188.308,73.5086 189.975,73.0086 191.5,72C 200.332,70.563 208.666,71.7296 216.5,75.5 Z"/></g>
<g><path style="opacity:1" fill="#c46ec1" d="M 234.5,86.5 C 237.19,88.2593 237.856,90.5926 236.5,93.5C 235.167,92.5 233.833,91.5 232.5,90.5C 232.264,91.2472 231.93,92.0805 231.5,93C 232.416,93.3742 233.25,93.8742 234,94.5C 237.016,103.934 238.183,113.601 237.5,123.5C 237.672,124.492 237.338,125.158 236.5,125.5C 235.542,125.953 234.708,126.619 234,127.5C 233.027,125.608 232.36,123.608 232,121.5C 231.626,123.491 230.793,125.158 229.5,126.5C 230.497,122.508 231.497,118.508 232.5,114.5C 231.96,113.252 231.293,112.085 230.5,111C 229.184,110.472 228.517,110.972 228.5,112.5C 226.559,111.362 226.392,109.696 228,107.5C 229.27,100.133 227.103,94.1335 221.5,89.5C 216.557,87.5168 211.89,85.1835 207.5,82.5C 209.143,82.5198 210.476,81.8532 211.5,80.5C 214.498,82.6682 217.831,83.6682 221.5,83.5C 221.899,86.9708 223.399,87.3042 226,84.5C 229.526,85.6439 232.526,87.6439 235,90.5C 235.195,89.1807 235.028,87.8474 234.5,86.5 Z"/></g>
<g><path style="opacity:1" fill="#c46ec3" d="M 221.5,89.5 C 227.103,94.1335 229.27,100.133 228,107.5C 226.392,109.696 226.559,111.362 228.5,112.5C 228.013,113.473 227.513,114.473 227,115.5C 221.884,114.856 216.718,114.189 211.5,113.5C 210.995,112.081 209.995,111.415 208.5,111.5C 207.432,110.566 206.099,110.232 204.5,110.5C 204.5,109.167 204.5,107.833 204.5,106.5C 202.473,106.662 200.473,106.495 198.5,106C 194.18,103.673 189.68,101.84 185,100.5C 183.374,101.289 181.874,102.289 180.5,103.5C 179.692,103.192 179.025,102.692 178.5,102C 179.171,101.014 179.171,99.8471 178.5,98.5C 186.254,88.1915 196.587,84.6915 209.5,88C 210.833,88.6667 212.167,89.3333 213.5,90C 217.054,93.5978 220.721,97.0978 224.5,100.5C 225.641,98.5787 225.808,96.5787 225,94.5C 223.198,93.2107 222.031,91.5441 221.5,89.5 Z"/></g>
<g><path style="opacity:0.156" fill="#9545a0" d="M 135.5,84.5 C 136.492,84.3284 137.158,84.6618 137.5,85.5C 130.589,94.3218 123.923,103.322 117.5,112.5C 112.599,119.958 107.932,127.625 103.5,135.5C 102.596,136.209 102.263,137.209 102.5,138.5C 101.5,138.5 100.5,138.5 99.5,138.5C 109.01,118.805 121.01,100.805 135.5,84.5 Z"/></g>
<g><path style="opacity:1" fill="#b659b2" d="M 279.5,13.5 C 280.65,18.3158 280.816,23.3158 280,28.5C 276.083,41.0047 272.75,53.6713 270,66.5C 265.287,76.7581 260.454,86.9248 255.5,97C 251.85,101.556 248.683,106.39 246,111.5C 245.632,110.09 244.799,109.09 243.5,108.5C 242.506,112.452 241.84,116.452 241.5,120.5C 240.833,120.167 240.167,119.833 239.5,119.5C 239.697,115.182 239.697,111.015 239.5,107C 240.207,104.48 241.04,101.98 242,99.5C 242.72,101.255 243.887,102.089 245.5,102C 247.709,100.127 249.542,97.96 251,95.5C 255.438,86.6113 258.771,77.278 261,67.5C 265.547,60.2417 269.714,52.7417 273.5,45C 272.862,43.2933 272.862,41.46 273.5,39.5C 274.966,38.653 275.8,37.3197 276,35.5C 277.15,31.8883 277.983,28.2217 278.5,24.5C 278.942,20.8455 279.276,17.1788 279.5,13.5 Z"/></g>
<g><path style="opacity:1" fill="#b860ba" d="M 207.5,82.5 C 211.89,85.1835 216.557,87.5168 221.5,89.5C 222.031,91.5441 223.198,93.2107 225,94.5C 225.808,96.5787 225.641,98.5787 224.5,100.5C 220.721,97.0978 217.054,93.5978 213.5,90C 212.167,89.3333 210.833,88.6667 209.5,88C 196.587,84.6915 186.254,88.1915 178.5,98.5C 175.783,101.237 174.45,104.57 174.5,108.5C 173.842,107.602 173.176,106.602 172.5,105.5C 171.667,106.5 170.833,107.5 170,108.5C 168.988,114.35 169.488,120.016 171.5,125.5C 170.863,127.303 169.697,128.636 168,129.5C 165.595,126.6 163.095,123.933 160.5,121.5C 158.996,116.221 157.996,110.888 157.5,105.5C 157.888,101.007 158.888,96.6734 160.5,92.5C 162.451,91.2842 163.951,89.6175 165,87.5C 165.195,88.8193 165.028,90.1526 164.5,91.5C 163.833,93.8333 163.167,96.1667 162.5,98.5C 161.778,98.9175 161.278,99.5842 161,100.5C 160.264,105.866 160.431,111.2 161.5,116.5C 161.824,118.569 162.658,118.902 164,117.5C 164.719,113.855 165.219,110.188 165.5,106.5C 166.93,106.579 168.264,106.246 169.5,105.5C 177.201,89.6487 189.868,81.982 207.5,82.5 Z"/></g>
<g><path style="opacity:1" fill="#bd69c0" d="M 178.5,98.5 C 179.171,99.8471 179.171,101.014 178.5,102C 179.025,102.692 179.692,103.192 180.5,103.5C 181.874,102.289 183.374,101.289 185,100.5C 189.68,101.84 194.18,103.673 198.5,106C 200.473,106.495 202.473,106.662 204.5,106.5C 204.5,107.833 204.5,109.167 204.5,110.5C 206.099,110.232 207.432,110.566 208.5,111.5C 207.551,112.923 206.551,114.423 205.5,116C 205.759,117.261 206.426,118.261 207.5,119C 204.246,120.881 203.912,123.047 206.5,125.5C 203.635,127.031 201.302,129.197 199.5,132C 200.774,132.977 200.774,133.811 199.5,134.5C 197.348,133.923 197.015,132.756 198.5,131C 197.167,130.333 195.833,130.333 194.5,131C 195.451,131.718 195.617,132.551 195,133.5C 190.054,130.616 187.388,126.283 187,120.5C 185.859,118.391 184.359,116.558 182.5,115C 185.519,110.134 187.519,110.468 188.5,116C 191.278,116.923 193.278,116.089 194.5,113.5C 190.993,112.346 188.826,110.013 188,106.5C 185.097,108.947 182.43,111.614 180,114.5C 179.085,113.672 178.419,112.672 178,111.5C 176.855,112.684 175.688,112.684 174.5,111.5C 174.5,110.5 174.5,109.5 174.5,108.5C 174.45,104.57 175.783,101.237 178.5,98.5 Z"/></g>
<g><path style="opacity:1" fill="#bf71c3" d="M 229.5,126.5 C 225.535,131.467 221.202,136.133 216.5,140.5C 208.861,144.376 200.861,145.376 192.5,143.5C 190.035,142.753 188.035,141.253 186.5,139C 190.486,138.501 194.486,138.334 198.5,138.5C 198.433,137.041 198.766,135.708 199.5,134.5C 200.774,133.811 200.774,132.977 199.5,132C 201.302,129.197 203.635,127.031 206.5,125.5C 203.912,123.047 204.246,120.881 207.5,119C 206.426,118.261 205.759,117.261 205.5,116C 206.551,114.423 207.551,112.923 208.5,111.5C 209.995,111.415 210.995,112.081 211.5,113.5C 216.718,114.189 221.884,114.856 227,115.5C 227.513,114.473 228.013,113.473 228.5,112.5C 228.517,110.972 229.184,110.472 230.5,111C 231.293,112.085 231.96,113.252 232.5,114.5C 231.497,118.508 230.497,122.508 229.5,126.5 Z"/></g>
<g><path style="opacity:1" fill="#b873c3" d="M 156.5,106.5 C 156.178,112.358 156.511,118.025 157.5,123.5C 159.584,134.4 155.584,142.066 145.5,146.5C 144.315,147.853 142.981,149.02 141.5,150C 141.957,150.414 142.291,150.914 142.5,151.5C 141.349,152.731 140.183,152.731 139,151.5C 136.036,154.687 132.87,154.52 129.5,151C 129.507,147.65 129.507,144.316 129.5,141C 133.405,132.576 137.238,124.076 141,115.5C 145.427,109.423 150.427,103.757 156,98.5C 156.497,101.146 156.664,103.813 156.5,106.5 Z"/></g>
<g><path style="opacity:1" fill="#bd79c6" d="M 153.5,105.5 C 154.117,105.611 154.617,105.944 155,106.5C 155.206,112.884 155.706,119.217 156.5,125.5C 155.224,135.599 149.557,140.765 139.5,141C 138.427,139.687 137.76,138.187 137.5,136.5C 139.414,124.336 144.748,114.003 153.5,105.5 Z"/></g>
<g><path style="opacity:1" fill="#ac53ba" d="M 139.5,84.5 C 140.239,84.369 140.906,84.5357 141.5,85C 140.35,87.4622 139.017,89.7955 137.5,92C 138.167,92.3333 138.833,92.6667 139.5,93C 136.313,96.528 133.479,100.361 131,104.5C 130.508,105.549 130.674,106.549 131.5,107.5C 127.173,113.157 124.173,119.49 122.5,126.5C 121.849,127.091 121.182,127.757 120.5,128.5C 119.878,134.837 117.712,140.503 114,145.5C 113.768,144.263 113.268,143.263 112.5,142.5C 115.54,136.206 117.04,129.54 117,122.5C 117.5,122 118,121.5 118.5,121C 118.045,118.45 117.711,115.616 117.5,112.5C 123.923,103.322 130.589,94.3218 137.5,85.5C 138.167,85.1667 138.833,84.8333 139.5,84.5 Z"/></g>
<g><path style="opacity:1" fill="#994098" d="M 279.5,71.5 C 277.135,92.242 272.135,112.242 264.5,131.5C 262.944,136.379 260.944,141.045 258.5,145.5C 258.565,145.062 258.399,144.728 258,144.5C 257.667,145.167 257.333,145.833 257,146.5C 256.23,145.402 255.397,145.402 254.5,146.5C 254.461,145.417 254.127,144.417 253.5,143.5C 255.585,142.459 257.252,140.959 258.5,139C 255.124,140.159 251.79,141.659 248.5,143.5C 248.5,141.5 248.5,139.5 248.5,137.5C 251.044,132.612 254.544,128.279 259,124.5C 259.113,122.026 260.113,120.026 262,118.5C 262.822,115.883 263.322,113.216 263.5,110.5C 264.5,110.5 265.5,110.5 266.5,110.5C 267.758,106.964 268.591,103.297 269,99.5C 269.667,100.833 270.333,100.833 271,99.5C 272.665,91.8285 274.832,84.3285 277.5,77C 276.091,74.3911 276.758,72.5578 279.5,71.5 Z"/></g>
<g><path style="opacity:1" fill="#ba67c0" d="M 199.5,134.5 C 198.766,135.708 198.433,137.041 198.5,138.5C 194.486,138.334 190.486,138.501 186.5,139C 188.035,141.253 190.035,142.753 192.5,143.5C 192.918,144.222 193.584,144.722 194.5,145C 199.672,145.365 204.672,145.531 209.5,145.5C 206.431,146.929 203.264,148.262 200,149.5C 197.846,148.748 195.68,148.581 193.5,149C 193.833,149.333 194.167,149.667 194.5,150C 200.157,150.499 205.824,150.666 211.5,150.5C 211.5,150.833 211.5,151.167 211.5,151.5C 205.491,151.666 199.491,151.499 193.5,151C 190.931,150.102 188.598,148.935 186.5,147.5C 185.311,144.651 183.311,142.484 180.5,141C 181.727,139.413 181.394,138.079 179.5,137C 182.13,135.76 184.797,135.26 187.5,135.5C 185.396,133.417 185.062,131.083 186.5,128.5C 185.5,127.167 184.5,125.833 183.5,124.5C 183.709,123.914 184.043,123.414 184.5,123C 182.765,122.349 181.098,122.515 179.5,123.5C 178.685,121.724 177.518,121.057 176,121.5C 174.801,118.274 174.301,114.941 174.5,111.5C 175.688,112.684 176.855,112.684 178,111.5C 178.419,112.672 179.085,113.672 180,114.5C 182.43,111.614 185.097,108.947 188,106.5C 188.826,110.013 190.993,112.346 194.5,113.5C 193.278,116.089 191.278,116.923 188.5,116C 187.519,110.468 185.519,110.134 182.5,115C 184.359,116.558 185.859,118.391 187,120.5C 187.388,126.283 190.054,130.616 195,133.5C 195.617,132.551 195.451,131.718 194.5,131C 195.833,130.333 197.167,130.333 198.5,131C 197.015,132.756 197.348,133.923 199.5,134.5 Z"/></g>
<g><path style="opacity:1" fill="#ba6dbe" d="M 236.5,125.5 C 236.167,127.5 235.833,129.5 235.5,131.5C 231.399,136.171 227.399,141.004 223.5,146C 220.609,147.274 217.942,148.774 215.5,150.5C 214.167,150.5 212.833,150.5 211.5,150.5C 205.824,150.666 200.157,150.499 194.5,150C 194.167,149.667 193.833,149.333 193.5,149C 195.68,148.581 197.846,148.748 200,149.5C 203.264,148.262 206.431,146.929 209.5,145.5C 204.672,145.531 199.672,145.365 194.5,145C 193.584,144.722 192.918,144.222 192.5,143.5C 200.861,145.376 208.861,144.376 216.5,140.5C 221.202,136.133 225.535,131.467 229.5,126.5C 230.793,125.158 231.626,123.491 232,121.5C 232.36,123.608 233.027,125.608 234,127.5C 234.708,126.619 235.542,125.953 236.5,125.5 Z"/></g>
<g><path style="opacity:1" fill="#b760be" d="M 174.5,108.5 C 174.5,109.5 174.5,110.5 174.5,111.5C 174.301,114.941 174.801,118.274 176,121.5C 177.518,121.057 178.685,121.724 179.5,123.5C 181.098,122.515 182.765,122.349 184.5,123C 184.043,123.414 183.709,123.914 183.5,124.5C 184.5,125.833 185.5,127.167 186.5,128.5C 185.062,131.083 185.396,133.417 187.5,135.5C 184.797,135.26 182.13,135.76 179.5,137C 181.394,138.079 181.727,139.413 180.5,141C 183.311,142.484 185.311,144.651 186.5,147.5C 184.738,147.643 183.071,147.309 181.5,146.5C 176.963,141.798 171.963,137.631 166.5,134C 163.313,130.389 161.313,126.222 160.5,121.5C 163.095,123.933 165.595,126.6 168,129.5C 169.697,128.636 170.863,127.303 171.5,125.5C 169.488,120.016 168.988,114.35 170,108.5C 170.833,107.5 171.667,106.5 172.5,105.5C 173.176,106.602 173.842,107.602 174.5,108.5 Z"/></g>
<g><path style="opacity:1" fill="#b66dc2" d="M 160.5,92.5 C 158.888,96.6734 157.888,101.007 157.5,105.5C 157.5,106.167 157.167,106.5 156.5,106.5C 156.664,103.813 156.497,101.146 156,98.5C 150.427,103.757 145.427,109.423 141,115.5C 137.238,124.076 133.405,132.576 129.5,141C 129.507,144.316 129.507,147.65 129.5,151C 132.87,154.52 136.036,154.687 139,151.5C 140.183,152.731 141.349,152.731 142.5,151.5C 142.291,150.914 141.957,150.414 141.5,150C 142.981,149.02 144.315,147.853 145.5,146.5C 155.584,142.066 159.584,134.4 157.5,123.5C 158.255,126.053 158.922,128.72 159.5,131.5C 159.592,135.059 158.759,138.392 157,141.5C 152.5,147.333 147.333,152.5 141.5,157C 137.475,157.668 133.641,158.835 130,160.5C 126.344,158.19 124.511,154.857 124.5,150.5C 125.172,143.832 126.838,137.499 129.5,131.5C 134.343,123.816 138.677,115.816 142.5,107.5C 143.675,107.719 144.675,107.386 145.5,106.5C 149.281,100.304 153.947,94.9705 159.5,90.5C 160.298,90.9569 160.631,91.6236 160.5,92.5 Z"/></g>
<g><path style="opacity:1" fill="#923d9b" d="M 254.5,146.5 C 254.123,148.258 253.456,149.925 252.5,151.5C 255.074,153.693 254.741,155.527 251.5,157C 251.833,157.333 252.167,157.667 252.5,158C 248.52,158.814 245.52,160.981 243.5,164.5C 242.914,164.291 242.414,163.957 242,163.5C 236.479,170.258 230.312,176.258 223.5,181.5C 221.304,179.253 219.97,179.92 219.5,183.5C 214.745,184.41 211.245,187.077 209,191.5C 210.495,188.56 211.329,185.56 211.5,182.5C 213.19,180.496 214.524,178.163 215.5,175.5C 217.933,173.946 220.6,173.28 223.5,173.5C 224.031,170.763 224.864,168.096 226,165.5C 233.501,157.829 241.001,150.496 248.5,143.5C 251.79,141.659 255.124,140.159 258.5,139C 257.252,140.959 255.585,142.459 253.5,143.5C 254.127,144.417 254.461,145.417 254.5,146.5 Z"/></g>
<g><path style="opacity:1" fill="#ae5dbc" d="M 136.5,106.5 C 135.725,108.612 135.725,110.612 136.5,112.5C 134.205,118.408 131.538,124.075 128.5,129.5C 123.656,137.189 120.656,145.689 119.5,155C 121.542,166.29 127.875,169.79 138.5,165.5C 141.714,162.124 145.381,159.29 149.5,157C 151.037,155.89 151.703,154.39 151.5,152.5C 158.557,149.781 162.223,144.448 162.5,136.5C 167.914,143.25 174.247,148.917 181.5,153.5C 178.341,153.481 175.674,154.648 173.5,157C 175.325,158.466 175.825,160.299 175,162.5C 173.957,164.701 173.123,167.034 172.5,169.5C 171.749,168.624 171.249,167.624 171,166.5C 169.08,170.969 167.914,175.636 167.5,180.5C 167.855,184.712 169.855,187.879 173.5,190C 172.101,190.595 170.768,190.428 169.5,189.5C 168.482,190.193 167.482,190.859 166.5,191.5C 165.5,190.833 164.5,190.167 163.5,189.5C 163.189,186.084 162.189,182.917 160.5,180C 160.611,178.278 161.111,178.112 162,179.5C 162.651,177.765 162.485,176.098 161.5,174.5C 162.167,173.833 162.833,173.167 163.5,172.5C 162.005,172.522 160.338,172.189 158.5,171.5C 158.968,169.866 159.968,168.7 161.5,168C 160.91,166.491 160.244,164.991 159.5,163.5C 157.415,164.541 155.748,166.041 154.5,168C 150.882,168.966 147.549,168.466 144.5,166.5C 130.142,176.05 120.809,172.55 116.5,156C 117.69,147.856 119.69,140.023 122.5,132.5C 127.201,123.76 131.867,115.093 136.5,106.5 Z"/></g>
<g><path style="opacity:1" fill="#9f49aa" d="M 157.5,105.5 C 157.996,110.888 158.996,116.221 160.5,121.5C 161.313,126.222 163.313,130.389 166.5,134C 171.963,137.631 176.963,141.798 181.5,146.5C 183.071,147.309 184.738,147.643 186.5,147.5C 188.598,148.935 190.931,150.102 193.5,151C 199.491,151.499 205.491,151.666 211.5,151.5C 206.923,152.99 202.09,153.656 197,153.5C 192.783,153.225 188.616,153.058 184.5,153C 185.056,153.383 185.389,153.883 185.5,154.5C 184.167,154.167 182.833,153.833 181.5,153.5C 174.247,148.917 167.914,143.25 162.5,136.5C 161.308,134.887 160.308,133.22 159.5,131.5C 158.922,128.72 158.255,126.053 157.5,123.5C 156.511,118.025 156.178,112.358 156.5,106.5C 157.167,106.5 157.5,106.167 157.5,105.5 Z"/></g>
<g><path style="opacity:1" fill="#a14db6" d="M 117.5,112.5 C 117.711,115.616 118.045,118.45 118.5,121C 118,121.5 117.5,122 117,122.5C 117.04,129.54 115.54,136.206 112.5,142.5C 108.822,168.978 120.155,181.478 146.5,180C 150.385,182.725 154.385,185.225 158.5,187.5C 158.215,189.288 158.548,190.955 159.5,192.5C 160.855,193.188 161.855,194.188 162.5,195.5C 160.379,195.325 158.379,195.659 156.5,196.5C 147.538,191.406 138.204,186.906 128.5,183C 119.51,177.349 112.677,169.849 108,160.5C 107.667,157.833 107.333,155.167 107,152.5C 105.513,151.747 105.346,150.914 106.5,150C 102.799,147.755 102.133,144.922 104.5,141.5C 103.652,139.591 103.318,137.591 103.5,135.5C 107.932,127.625 112.599,119.958 117.5,112.5 Z"/></g>
<g><path style="opacity:1" fill="#9844a0" d="M 248.5,137.5 C 248.5,139.5 248.5,141.5 248.5,143.5C 241.001,150.496 233.501,157.829 226,165.5C 224.864,168.096 224.031,170.763 223.5,173.5C 220.6,173.28 217.933,173.946 215.5,175.5C 214.524,178.163 213.19,180.496 211.5,182.5C 209.179,183.477 206.846,184.477 204.5,185.5C 209.979,176.333 216.312,167.666 223.5,159.5C 224.172,156.014 225.505,152.848 227.5,150C 226.5,149.333 225.5,149.333 224.5,150C 220.741,151.879 217.075,153.713 213.5,155.5C 206.891,156.423 200.224,156.756 193.5,156.5C 193.167,156.5 192.833,156.5 192.5,156.5C 190.485,155.076 188.152,154.41 185.5,154.5C 185.389,153.883 185.056,153.383 184.5,153C 188.616,153.058 192.783,153.225 197,153.5C 202.09,153.656 206.923,152.99 211.5,151.5C 211.5,151.167 211.5,150.833 211.5,150.5C 212.833,150.5 214.167,150.5 215.5,150.5C 218.425,150.54 221.091,149.707 223.5,148C 229.713,142.454 235.213,136.288 240,129.5C 240.537,132.187 240.037,134.687 238.5,137C 241.817,137.498 245.15,137.665 248.5,137.5 Z"/></g>
<g><path style="opacity:1" fill="#9442b2" d="M 103.5,135.5 C 103.318,137.591 103.652,139.591 104.5,141.5C 102.133,144.922 102.799,147.755 106.5,150C 105.346,150.914 105.513,151.747 107,152.5C 107.333,155.167 107.667,157.833 108,160.5C 112.677,169.849 119.51,177.349 128.5,183C 138.204,186.906 147.538,191.406 156.5,196.5C 160.594,200.23 159.928,202.897 154.5,204.5C 150.577,203.205 146.91,201.372 143.5,199C 140.735,198.257 138.069,197.59 135.5,197C 140.375,201.163 145.375,205.33 150.5,209.5C 149.738,209.911 148.738,210.077 147.5,210C 148.167,210.667 148.833,211.333 149.5,212C 152.665,214.657 155.998,217.157 159.5,219.5C 157.139,219.326 154.806,218.993 152.5,218.5C 152.192,214.991 150.192,213.324 146.5,213.5C 140.881,206.559 134.215,200.559 126.5,195.5C 123.061,191.64 119.395,187.973 115.5,184.5C 113.192,182.529 110.858,180.529 108.5,178.5C 106.91,175.516 104.577,173.183 101.5,171.5C 100.069,171.977 98.7357,172.643 97.5,173.5C 99.3845,174.197 99.7178,175.197 98.5,176.5C 94.5408,177.327 90.5408,177.827 86.5,178C 84.2774,178.566 82.2774,179.4 80.5,180.5C 70.5932,183.836 61.2599,188.503 52.5,194.5C 52.5,193.833 52.5,193.167 52.5,192.5C 56.6812,190.668 60.3479,188.002 63.5,184.5C 71.0452,180.595 79.0452,177.761 87.5,176C 87.5586,172.016 87.8919,168.016 88.5,164C 87.9056,163.536 87.2389,163.369 86.5,163.5C 85.5,163.5 84.5,163.5 83.5,163.5C 87.5314,160.492 91.3647,157.158 95,153.5C 96.0772,148.362 97.5772,143.362 99.5,138.5C 100.5,138.5 101.5,138.5 102.5,138.5C 102.263,137.209 102.596,136.209 103.5,135.5 Z"/></g>
<g><path style="opacity:1" fill="#b167c1" d="M 128.5,129.5 C 128.328,130.492 128.662,131.158 129.5,131.5C 126.838,137.499 125.172,143.832 124.5,150.5C 124.511,154.857 126.344,158.19 130,160.5C 133.641,158.835 137.475,157.668 141.5,157C 147.333,152.5 152.5,147.333 157,141.5C 158.759,138.392 159.592,135.059 159.5,131.5C 160.308,133.22 161.308,134.887 162.5,136.5C 162.223,144.448 158.557,149.781 151.5,152.5C 151.703,154.39 151.037,155.89 149.5,157C 145.381,159.29 141.714,162.124 138.5,165.5C 127.875,169.79 121.542,166.29 119.5,155C 120.656,145.689 123.656,137.189 128.5,129.5 Z"/></g>
<g><path style="opacity:1" fill="#8c3997" d="M 258.5,145.5 C 255.167,155.5 250.5,164.833 244.5,173.5C 242.83,173.751 241.33,174.418 240,175.5C 239.803,177.861 238.636,179.528 236.5,180.5C 237.609,182.214 236.942,182.881 234.5,182.5C 234.728,180.645 234.061,179.812 232.5,180C 231.044,182.412 229.71,184.912 228.5,187.5C 227.914,187.291 227.414,186.957 227,186.5C 224.415,190.196 220.915,192.53 216.5,193.5C 216.389,192.883 216.056,192.383 215.5,192C 217.782,189.603 219.116,186.769 219.5,183.5C 219.97,179.92 221.304,179.253 223.5,181.5C 230.312,176.258 236.479,170.258 242,163.5C 242.414,163.957 242.914,164.291 243.5,164.5C 245.52,160.981 248.52,158.814 252.5,158C 252.167,157.667 251.833,157.333 251.5,157C 254.741,155.527 255.074,153.693 252.5,151.5C 253.456,149.925 254.123,148.258 254.5,146.5C 255.397,145.402 256.23,145.402 257,146.5C 257.333,145.833 257.667,145.167 258,144.5C 258.399,144.728 258.565,145.062 258.5,145.5 Z"/></g>
<g><path style="opacity:1" fill="#863eb5" d="M 86.5,163.5 C 87.2389,163.369 87.9056,163.536 88.5,164C 87.8919,168.016 87.5586,172.016 87.5,176C 79.0452,177.761 71.0452,180.595 63.5,184.5C 64.8823,181.606 66.8823,179.106 69.5,177C 75.3539,172.636 81.0205,168.136 86.5,163.5 Z"/></g>
<g><path style="opacity:1" fill="#a756bb" d="M 122.5,126.5 C 122.242,128.81 122.242,130.81 122.5,132.5C 119.69,140.023 117.69,147.856 116.5,156C 120.809,172.55 130.142,176.05 144.5,166.5C 147.549,168.466 150.882,168.966 154.5,168C 155.748,166.041 157.415,164.541 159.5,163.5C 160.244,164.991 160.91,166.491 161.5,168C 159.968,168.7 158.968,169.866 158.5,171.5C 160.338,172.189 162.005,172.522 163.5,172.5C 162.833,173.167 162.167,173.833 161.5,174.5C 162.485,176.098 162.651,177.765 162,179.5C 161.111,178.112 160.611,178.278 160.5,180C 162.189,182.917 163.189,186.084 163.5,189.5C 162.18,188.058 160.514,187.392 158.5,187.5C 154.385,185.225 150.385,182.725 146.5,180C 120.155,181.478 108.822,168.978 112.5,142.5C 113.268,143.263 113.768,144.263 114,145.5C 117.712,140.503 119.878,134.837 120.5,128.5C 121.182,127.757 121.849,127.091 122.5,126.5 Z"/></g>
<g><path style="opacity:0.498" fill="#702780" d="M 267.5,132.5 C 255.318,164.552 237.818,193.218 215,218.5C 210.667,221.5 206.333,224.5 202,227.5C 200.355,233.93 198.855,240.263 197.5,246.5C 196.699,244.958 196.366,243.292 196.5,241.5C 196.431,236.384 197.098,231.384 198.5,226.5C 203.53,223.316 208.196,219.649 212.5,215.5C 225.082,202.923 235.749,188.923 244.5,173.5C 250.5,164.833 255.167,155.5 258.5,145.5C 260.944,141.045 262.944,136.379 264.5,131.5C 265.117,131.389 265.617,131.056 266,130.5C 266.278,131.416 266.778,132.082 267.5,132.5 Z"/></g>
<g><path style="opacity:1" fill="#a35cb1" d="M 181.5,153.5 C 182.833,153.833 184.167,154.167 185.5,154.5C 188.152,154.41 190.485,155.076 192.5,156.5C 185.711,153.951 180.377,155.617 176.5,161.5C 177.98,162.113 179.313,162.446 180.5,162.5C 178.728,167.882 176.061,172.715 172.5,177C 173.638,181.374 176.472,183.874 181,184.5C 185.213,183.309 189.046,181.476 192.5,179C 197.974,172.513 203.307,166.013 208.5,159.5C 208.291,158.914 207.957,158.414 207.5,158C 202.649,157.826 197.982,157.326 193.5,156.5C 200.224,156.756 206.891,156.423 213.5,155.5C 215.262,155.643 216.929,155.309 218.5,154.5C 219.372,156.466 219.205,158.466 218,160.5C 212.745,167.414 207.912,174.581 203.5,182C 199.333,184.833 195.167,187.667 191,190.5C 191.077,189.262 190.911,188.262 190.5,187.5C 186.538,191.065 182.038,193.731 177,195.5C 172.933,195.266 169.433,193.932 166.5,191.5C 167.482,190.859 168.482,190.193 169.5,189.5C 170.768,190.428 172.101,190.595 173.5,190C 169.855,187.879 167.855,184.712 167.5,180.5C 167.914,175.636 169.08,170.969 171,166.5C 171.249,167.624 171.749,168.624 172.5,169.5C 173.123,167.034 173.957,164.701 175,162.5C 175.825,160.299 175.325,158.466 173.5,157C 175.674,154.648 178.341,153.481 181.5,153.5 Z"/></g>
<g><path style="opacity:1" fill="#ab68b6" d="M 192.5,156.5 C 192.833,156.5 193.167,156.5 193.5,156.5C 197.982,157.326 202.649,157.826 207.5,158C 207.957,158.414 208.291,158.914 208.5,159.5C 203.307,166.013 197.974,172.513 192.5,179C 189.046,181.476 185.213,183.309 181,184.5C 176.472,183.874 173.638,181.374 172.5,177C 176.061,172.715 178.728,167.882 180.5,162.5C 179.313,162.446 177.98,162.113 176.5,161.5C 180.377,155.617 185.711,153.951 192.5,156.5 Z"/></g>
<g><path style="opacity:1" fill="#9a4fab" d="M 204.5,185.5 C 198.254,191.564 191.254,196.73 183.5,201C 181.122,201.511 178.788,202.178 176.5,203C 174.272,203.82 172.272,203.487 170.5,202C 173.488,201.783 176.155,200.783 178.5,199C 172.893,198.846 167.56,197.679 162.5,195.5C 161.855,194.188 160.855,193.188 159.5,192.5C 158.548,190.955 158.215,189.288 158.5,187.5C 160.514,187.392 162.18,188.058 163.5,189.5C 164.5,190.167 165.5,190.833 166.5,191.5C 169.433,193.932 172.933,195.266 177,195.5C 182.038,193.731 186.538,191.065 190.5,187.5C 190.911,188.262 191.077,189.262 191,190.5C 195.167,187.667 199.333,184.833 203.5,182C 207.912,174.581 212.745,167.414 218,160.5C 219.205,158.466 219.372,156.466 218.5,154.5C 216.929,155.309 215.262,155.643 213.5,155.5C 217.075,153.713 220.741,151.879 224.5,150C 225.5,149.333 226.5,149.333 227.5,150C 225.505,152.848 224.172,156.014 223.5,159.5C 216.312,167.666 209.979,176.333 204.5,185.5 Z"/></g>
<g><path style="opacity:1" fill="#853597" d="M 244.5,173.5 C 235.749,188.923 225.082,202.923 212.5,215.5C 212.747,212.413 213.747,209.58 215.5,207C 211.878,207.627 208.211,208.46 204.5,209.5C 204.596,207.785 204.596,206.119 204.5,204.5C 205.686,202.519 207.019,200.519 208.5,198.5C 209.451,199.326 210.451,199.492 211.5,199C 212.833,196.809 214.5,194.976 216.5,193.5C 220.915,192.53 224.415,190.196 227,186.5C 227.414,186.957 227.914,187.291 228.5,187.5C 229.71,184.912 231.044,182.412 232.5,180C 234.061,179.812 234.728,180.645 234.5,182.5C 236.942,182.881 237.609,182.214 236.5,180.5C 238.636,179.528 239.803,177.861 240,175.5C 241.33,174.418 242.83,173.751 244.5,173.5 Z"/></g>
<g><path style="opacity:1" fill="#ae6cc6" d="M 115.5,184.5 C 119.395,187.973 123.061,191.64 126.5,195.5C 117.162,199.954 109.995,197.287 105,187.5C 104.009,185.553 103.675,183.553 104,181.5C 107.695,182.978 111.528,183.978 115.5,184.5 Z"/></g>
<g><path style="opacity:1" fill="#873cb1" d="M 108.5,215.5 C 110.449,216.184 112.115,217.351 113.5,219C 117.188,220.182 120.855,221.348 124.5,222.5C 124.297,224.39 124.963,225.89 126.5,227C 132.764,226.592 137.764,228.925 141.5,234C 138.881,233.917 136.214,233.75 133.5,233.5C 131.304,233.41 129.137,233.077 127,232.5C 125.188,232.493 123.688,233.16 122.5,234.5C 114.898,232.466 108.232,228.799 102.5,223.5C 97.4124,213.806 95.0791,203.472 95.5,192.5C 95.7828,191.711 96.2828,191.044 97,190.5C 97.0554,196.797 97.8887,202.963 99.5,209C 101.304,212.989 104.304,215.156 108.5,215.5 Z"/></g>
<g><path style="opacity:1" fill="#a55bc1" d="M 108.5,178.5 C 110.858,180.529 113.192,182.529 115.5,184.5C 111.528,183.978 107.695,182.978 104,181.5C 103.675,183.553 104.009,185.553 105,187.5C 109.995,197.287 117.162,199.954 126.5,195.5C 134.215,200.559 140.881,206.559 146.5,213.5C 144.634,212.986 142.8,212.32 141,211.5C 139.826,212.544 138.659,213.544 137.5,214.5C 136.05,211.215 133.717,208.715 130.5,207C 131.833,206.333 131.833,205.667 130.5,205C 124.358,203.954 118.358,202.288 112.5,200C 102.973,195.041 99.6401,187.541 102.5,177.5C 104.409,178.348 106.409,178.682 108.5,178.5 Z"/></g>
<g><path style="opacity:1" fill="#8f42a6" d="M 211.5,182.5 C 211.329,185.56 210.495,188.56 209,191.5C 211.245,187.077 214.745,184.41 219.5,183.5C 219.116,186.769 217.782,189.603 215.5,192C 216.056,192.383 216.389,192.883 216.5,193.5C 214.5,194.976 212.833,196.809 211.5,199C 210.451,199.492 209.451,199.326 208.5,198.5C 207.019,200.519 205.686,202.519 204.5,204.5C 201.873,205.105 199.207,205.605 196.5,206C 193.11,209.196 189.11,211.029 184.5,211.5C 180.424,213.688 176.091,214.021 171.5,212.5C 165.86,209.882 160.194,207.215 154.5,204.5C 159.928,202.897 160.594,200.23 156.5,196.5C 158.379,195.659 160.379,195.325 162.5,195.5C 167.56,197.679 172.893,198.846 178.5,199C 176.155,200.783 173.488,201.783 170.5,202C 172.272,203.487 174.272,203.82 176.5,203C 178.788,202.178 181.122,201.511 183.5,201C 191.254,196.73 198.254,191.564 204.5,185.5C 206.846,184.477 209.179,183.477 211.5,182.5 Z"/></g>
<g><path style="opacity:1" fill="#813aae" d="M 93.5,190.5 C 93.8333,191.5 94.5,192.167 95.5,192.5C 95.0791,203.472 97.4124,213.806 102.5,223.5C 108.232,228.799 114.898,232.466 122.5,234.5C 123.688,233.16 125.188,232.493 127,232.5C 129.137,233.077 131.304,233.41 133.5,233.5C 133.918,234.222 134.584,234.722 135.5,235C 141.218,235.211 146.885,235.711 152.5,236.5C 153.192,235.975 153.692,235.308 154,234.5C 156.385,235.154 158.885,235.154 161.5,234.5C 162.833,234.833 164.167,235.167 165.5,235.5C 164.754,236.736 164.421,238.07 164.5,239.5C 163.167,240.167 162.167,241.167 161.5,242.5C 160.833,242.5 160.167,242.5 159.5,242.5C 155.646,240.059 151.813,240.392 148,243.5C 144.105,239.97 139.938,239.304 135.5,241.5C 131.06,239.555 126.393,238.222 121.5,237.5C 118.988,234.105 115.821,232.772 112,233.5C 107.162,229.937 102.829,225.937 99,221.5C 96.2776,214.102 94.7776,206.435 94.5,198.5C 93.0476,199.94 92.0476,201.606 91.5,203.5C 90.7784,203.918 90.2784,204.584 90,205.5C 86.2334,203.119 82.0667,202.286 77.5,203C 74.5233,204.663 71.3566,205.83 68,206.5C 66.927,205.72 65.7604,205.887 64.5,207C 64.8333,207.333 65.1667,207.667 65.5,208C 62.2103,209.051 59.2103,209.884 56.5,210.5C 55.3052,210.678 54.1385,211.011 53,211.5C 51.9701,211.164 51.4701,210.497 51.5,209.5C 53.8591,208.824 56.1924,207.991 58.5,207C 60.8424,204.096 63.8424,202.096 67.5,201C 72.5109,199.33 77.5109,197.663 82.5,196C 83.1667,194.667 83.8333,193.333 84.5,192C 87.544,191.637 90.544,191.137 93.5,190.5 Z"/></g>
<g><path style="opacity:1" fill="#9d51bd" d="M 108.5,178.5 C 106.409,178.682 104.409,178.348 102.5,177.5C 99.6401,187.541 102.973,195.041 112.5,200C 118.358,202.288 124.358,203.954 130.5,205C 131.833,205.667 131.833,206.333 130.5,207C 133.717,208.715 136.05,211.215 137.5,214.5C 139.114,216.456 140.781,218.456 142.5,220.5C 140.883,219.962 139.216,219.629 137.5,219.5C 130.71,211.603 122.043,207.103 111.5,206C 108.92,204.214 106.253,202.714 103.5,201.5C 103.046,198.86 101.879,196.527 100,194.5C 99.502,191.518 99.3354,188.518 99.5,185.5C 95.9829,184.38 92.3163,184.38 88.5,185.5C 84.4947,185.976 80.4947,186.143 76.5,186C 82.6005,183.172 88.9339,180.839 95.5,179C 90.3905,178.43 85.3905,178.93 80.5,180.5C 82.2774,179.4 84.2774,178.566 86.5,178C 90.5408,177.827 94.5408,177.327 98.5,176.5C 99.7178,175.197 99.3845,174.197 97.5,173.5C 98.7357,172.643 100.069,171.977 101.5,171.5C 104.577,173.183 106.91,175.516 108.5,178.5 Z"/></g>
<g><path style="opacity:1" fill="#80349a" d="M 204.5,204.5 C 204.596,206.119 204.596,207.785 204.5,209.5C 208.211,208.46 211.878,207.627 215.5,207C 213.747,209.58 212.747,212.413 212.5,215.5C 208.196,219.649 203.53,223.316 198.5,226.5C 197.127,226.657 195.793,226.49 194.5,226C 195.833,225.333 195.833,224.667 194.5,224C 195.167,223.667 195.833,223.333 196.5,223C 193.623,221.873 190.623,221.206 187.5,221C 189.056,219.401 190.723,217.901 192.5,216.5C 192.167,216.167 191.833,215.833 191.5,215.5C 188.208,216.755 184.875,217.755 181.5,218.5C 181.325,215.671 182.658,214.004 185.5,213.5C 185.137,212.817 184.804,212.15 184.5,211.5C 189.11,211.029 193.11,209.196 196.5,206C 199.207,205.605 201.873,205.105 204.5,204.5 Z"/></g>
<g><path style="opacity:1" fill="#7534a8" d="M 91.5,203.5 C 91.0372,206.221 90.3705,208.888 89.5,211.5C 88.735,212.66 87.735,213.66 86.5,214.5C 84.9361,213.814 83.2694,213.981 81.5,215C 81.8333,215.333 82.1667,215.667 82.5,216C 80.8333,216.333 79.1667,216.667 77.5,217C 76.1667,217.667 76.1667,218.333 77.5,219C 75.4546,219.49 73.4546,219.323 71.5,218.5C 67.1115,216.856 62.4448,215.856 57.5,215.5C 54.2901,216.944 50.9568,217.444 47.5,217C 50.6754,214.978 53.6754,212.812 56.5,210.5C 59.2103,209.884 62.2103,209.051 65.5,208C 65.1667,207.667 64.8333,207.333 64.5,207C 65.7604,205.887 66.927,205.72 68,206.5C 71.3566,205.83 74.5233,204.663 77.5,203C 82.0667,202.286 86.2334,203.119 90,205.5C 90.2784,204.584 90.7784,203.918 91.5,203.5 Z"/></g>
<g><path style="opacity:1" fill="#9144b7" d="M 99.5,185.5 C 99.3354,188.518 99.502,191.518 100,194.5C 101.879,196.527 103.046,198.86 103.5,201.5C 106.253,202.714 108.92,204.214 111.5,206C 122.043,207.103 130.71,211.603 137.5,219.5C 138.942,220.82 139.608,222.486 139.5,224.5C 135.874,221.345 131.541,219.845 126.5,220C 124.484,217.711 122.151,217.211 119.5,218.5C 116.265,217.238 113.098,215.905 110,214.5C 109.235,214.57 108.735,214.903 108.5,215.5C 104.304,215.156 101.304,212.989 99.5,209C 97.8887,202.963 97.0554,196.797 97,190.5C 96.2828,191.044 95.7828,191.711 95.5,192.5C 94.5,192.167 93.8333,191.5 93.5,190.5C 97.4031,189.538 97.4031,188.371 93.5,187C 95.5183,186.495 97.5183,185.995 99.5,185.5 Z"/></g>
<g><path style="opacity:1" fill="#7330ac" d="M 91.5,213.5 C 92.2603,218.527 93.427,223.527 95,228.5C 96,230.5 97,232.5 98,234.5C 102.057,240.552 107.39,245.219 114,248.5C 116.53,246.781 118.363,247.281 119.5,250C 125.551,252.01 131.718,253.51 138,254.5C 141.132,254.167 143.965,253.167 146.5,251.5C 146.938,251.435 147.272,251.601 147.5,252C 145.21,253.777 143.543,255.944 142.5,258.5C 139.524,261.968 137.191,265.802 135.5,270C 136.625,277.02 136.625,284.187 135.5,291.5C 134.578,287.005 133.911,282.338 133.5,277.5C 132.944,272.287 133.944,267.454 136.5,263C 136.43,262.235 136.097,261.735 135.5,261.5C 135.953,260.542 136.619,259.708 137.5,259C 135.005,259.078 132.505,259.578 130,260.5C 118.926,257.042 108.926,251.709 100,244.5C 93.6179,235.181 90.7845,224.847 91.5,213.5 Z"/></g>
<g><path style="opacity:1" fill="#8a40b1" d="M 108.5,215.5 C 108.735,214.903 109.235,214.57 110,214.5C 113.098,215.905 116.265,217.238 119.5,218.5C 122.151,217.211 124.484,217.711 126.5,220C 131.541,219.845 135.874,221.345 139.5,224.5C 148.449,229.239 157.949,231.572 168,231.5C 168.667,230.833 169.333,230.167 170,229.5C 170.494,231.134 170.66,232.801 170.5,234.5C 167.885,235.45 165.885,237.117 164.5,239.5C 164.421,238.07 164.754,236.736 165.5,235.5C 164.167,235.167 162.833,234.833 161.5,234.5C 158.885,235.154 156.385,235.154 154,234.5C 153.692,235.308 153.192,235.975 152.5,236.5C 146.885,235.711 141.218,235.211 135.5,235C 134.584,234.722 133.918,234.222 133.5,233.5C 136.214,233.75 138.881,233.917 141.5,234C 137.764,228.925 132.764,226.592 126.5,227C 124.963,225.89 124.297,224.39 124.5,222.5C 120.855,221.348 117.188,220.182 113.5,219C 112.115,217.351 110.449,216.184 108.5,215.5 Z"/></g>
<g><path style="opacity:1" fill="#7037a7" d="M 83.5,163.5 C 84.5,163.5 85.5,163.5 86.5,163.5C 81.0205,168.136 75.3539,172.636 69.5,177C 66.8823,179.106 64.8823,181.606 63.5,184.5C 60.3479,188.002 56.6812,190.668 52.5,192.5C 42.6217,199.203 33.4551,206.869 25,215.5C 21.6667,219.5 18.3333,223.5 15,227.5C 14.6667,229.167 14.3333,230.833 14,232.5C 11.9268,235.862 10.0934,239.362 8.5,243C 8.66667,243.5 8.83333,244 9,244.5C 11.046,242.624 12.8793,240.624 14.5,238.5C 15.2811,239.729 15.7811,241.062 16,242.5C 17.4513,239.389 19.2846,236.556 21.5,234C 26.1488,231.011 30.4821,227.677 34.5,224C 38.027,219.561 42.027,215.561 46.5,212C 48.4517,211.634 50.1184,210.801 51.5,209.5C 51.4701,210.497 51.9701,211.164 53,211.5C 54.1385,211.011 55.3052,210.678 56.5,210.5C 53.6754,212.812 50.6754,214.978 47.5,217C 50.9568,217.444 54.2901,216.944 57.5,215.5C 62.4448,215.856 67.1115,216.856 71.5,218.5C 68.6557,219.058 65.8224,219.725 63,220.5C 57.9739,218.666 53.8072,219.666 50.5,223.5C 47.4861,223.129 44.4861,223.629 41.5,225C 37.6723,229.07 33.3389,232.404 28.5,235C 24.2678,238.743 19.9345,242.243 15.5,245.5C 13.9557,245.703 12.6223,246.37 11.5,247.5C 9.83333,246.167 8.16667,246.167 6.5,247.5C 6.40493,245.785 6.0716,244.119 5.5,242.5C 6.37932,239.076 8.04599,236.076 10.5,233.5C 10.3333,233.167 10.1667,232.833 10,232.5C 9.18405,233.823 8.01739,234.489 6.5,234.5C 19.8017,215.309 36.4684,199.475 56.5,187C 64.4595,177.867 73.4595,170.034 83.5,163.5 Z"/></g>
<g><path style="opacity:1" fill="#8637a7" d="M 154.5,204.5 C 160.194,207.215 165.86,209.882 171.5,212.5C 176.091,214.021 180.424,213.688 184.5,211.5C 184.804,212.15 185.137,212.817 185.5,213.5C 182.658,214.004 181.325,215.671 181.5,218.5C 178.921,219.228 176.254,219.728 173.5,220C 174.888,220.889 174.722,221.389 173,221.5C 170.667,220.833 168.333,220.167 166,219.5C 164.97,219.836 164.47,220.503 164.5,221.5C 163.18,220.058 161.514,219.392 159.5,219.5C 155.998,217.157 152.665,214.657 149.5,212C 148.833,211.333 148.167,210.667 147.5,210C 148.738,210.077 149.738,209.911 150.5,209.5C 145.375,205.33 140.375,201.163 135.5,197C 138.069,197.59 140.735,198.257 143.5,199C 146.91,201.372 150.577,203.205 154.5,204.5 Z"/></g>
<g><path style="opacity:1" fill="#955bc0" d="M 88.5,185.5 C 79.2444,191.132 69.5777,196.299 59.5,201C 53.6656,206.41 47.3323,211.076 40.5,215C 37.6667,217.833 34.8333,220.667 32,223.5C 31.7811,222.062 31.2811,220.729 30.5,219.5C 25.8613,224.474 21.1947,229.474 16.5,234.5C 15.1667,233.167 15.1667,231.833 16.5,230.5C 20.8941,225.397 25.0607,220.064 29,214.5C 34.652,209.348 40.152,204.015 45.5,198.5C 47.8676,197.111 50.2009,195.778 52.5,194.5C 61.2599,188.503 70.5932,183.836 80.5,180.5C 85.3905,178.93 90.3905,178.43 95.5,179C 88.9339,180.839 82.6005,183.172 76.5,186C 80.4947,186.143 84.4947,185.976 88.5,185.5 Z"/></g>
<g><path style="opacity:1" fill="#622ba2" d="M 84.5,226.5 C 85.1174,226.389 85.6174,226.056 86,225.5C 86.5202,239.761 92.0202,251.594 102.5,261C 111.088,266.751 120.421,268.584 130.5,266.5C 130.5,268.167 130.5,269.833 130.5,271.5C 129.333,270.185 127.833,269.519 126,269.5C 122.542,270.286 119.042,270.62 115.5,270.5C 114.965,268.554 113.632,267.554 111.5,267.5C 107.272,265.934 103.272,263.934 99.5,261.5C 97.3932,259.273 95.0599,257.273 92.5,255.5C 91.1667,254.167 89.8333,252.833 88.5,251.5C 88.2203,245.107 86.887,238.94 84.5,233C 82.6207,232.937 80.7873,233.437 79,234.5C 75.8589,233.954 72.6922,233.621 69.5,233.5C 62.8293,234.834 56.1626,236.167 49.5,237.5C 48.2794,236.972 47.1127,236.305 46,235.5C 45.3261,236.578 44.3261,237.245 43,237.5C 39.8752,236.744 36.7086,236.411 33.5,236.5C 33.5,237.5 33.5,238.5 33.5,239.5C 27.6015,239.559 22.6015,241.725 18.5,246C 17.2506,246.74 16.2506,246.573 15.5,245.5C 19.9345,242.243 24.2678,238.743 28.5,235C 33.3389,232.404 37.6723,229.07 41.5,225C 44.4861,223.629 47.4861,223.129 50.5,223.5C 50.4346,223.938 50.6012,224.272 51,224.5C 53.267,223.711 55.6003,223.044 58,222.5C 64.5679,223.411 70.9012,225.078 77,227.5C 79.4353,227.643 81.9353,227.31 84.5,226.5 Z"/></g>
<g><path style="opacity:1" fill="#772f9a" d="M 198.5,226.5 C 197.098,231.384 196.431,236.384 196.5,241.5C 195.833,243.5 195.167,245.5 194.5,247.5C 194.657,246.127 194.49,244.793 194,243.5C 193.424,246.124 192.09,246.791 190,245.5C 188,247.597 185.834,248.597 183.5,248.5C 182.139,252.87 181.139,257.203 180.5,261.5C 180.666,256.156 180.499,250.823 180,245.5C 179.428,241.837 178.262,238.503 176.5,235.5C 175.106,233.049 174.272,230.382 174,227.5C 170.407,226.054 167.24,224.054 164.5,221.5C 164.47,220.503 164.97,219.836 166,219.5C 168.333,220.167 170.667,220.833 173,221.5C 174.722,221.389 174.888,220.889 173.5,220C 176.254,219.728 178.921,219.228 181.5,218.5C 184.875,217.755 188.208,216.755 191.5,215.5C 191.833,215.833 192.167,216.167 192.5,216.5C 190.723,217.901 189.056,219.401 187.5,221C 190.623,221.206 193.623,221.873 196.5,223C 195.833,223.333 195.167,223.667 194.5,224C 195.833,224.667 195.833,225.333 194.5,226C 195.793,226.49 197.127,226.657 198.5,226.5 Z"/></g>
<g><path style="opacity:1" fill="#914bb3" d="M 137.5,219.5 C 139.216,219.629 140.883,219.962 142.5,220.5C 147.181,223.634 152.347,225.634 158,226.5C 159.833,226.167 161.667,225.833 163.5,225.5C 161.722,223.736 160.389,221.736 159.5,219.5C 161.514,219.392 163.18,220.058 164.5,221.5C 167.24,224.054 170.407,226.054 174,227.5C 174.272,230.382 175.106,233.049 176.5,235.5C 176.667,247.505 176.5,259.505 176,271.5C 174.679,276.02 173.179,280.353 171.5,284.5C 171.19,283.262 170.69,283.262 170,284.5C 169.351,287.937 168.851,288.104 168.5,285C 169.815,280.893 170.815,276.726 171.5,272.5C 172.222,272.082 172.722,271.416 173,270.5C 173.521,265.148 174.187,259.815 175,254.5C 175.819,248.319 175.653,242.319 174.5,236.5C 173.817,234.824 172.483,234.157 170.5,234.5C 170.66,232.801 170.494,231.134 170,229.5C 169.333,230.167 168.667,230.833 168,231.5C 157.949,231.572 148.449,229.239 139.5,224.5C 139.608,222.486 138.942,220.82 137.5,219.5 Z"/></g>
<g><path style="opacity:1" fill="#9c5cb8" d="M 146.5,213.5 C 150.192,213.324 152.192,214.991 152.5,218.5C 154.806,218.993 157.139,219.326 159.5,219.5C 160.389,221.736 161.722,223.736 163.5,225.5C 161.667,225.833 159.833,226.167 158,226.5C 152.347,225.634 147.181,223.634 142.5,220.5C 140.781,218.456 139.114,216.456 137.5,214.5C 138.659,213.544 139.826,212.544 141,211.5C 142.8,212.32 144.634,212.986 146.5,213.5 Z"/></g>
<g><path style="opacity:1" fill="#844ab7" d="M 99.5,185.5 C 97.5183,185.995 95.5183,186.495 93.5,187C 97.4031,188.371 97.4031,189.538 93.5,190.5C 90.544,191.137 87.544,191.637 84.5,192C 83.8333,193.333 83.1667,194.667 82.5,196C 77.5109,197.663 72.5109,199.33 67.5,201C 63.8424,202.096 60.8424,204.096 58.5,207C 56.1924,207.991 53.8591,208.824 51.5,209.5C 50.1184,210.801 48.4517,211.634 46.5,212C 42.027,215.561 38.027,219.561 34.5,224C 30.4821,227.677 26.1488,231.011 21.5,234C 19.2846,236.556 17.4513,239.389 16,242.5C 15.7811,241.062 15.2811,239.729 14.5,238.5C 12.8793,240.624 11.046,242.624 9,244.5C 8.83333,244 8.66667,243.5 8.5,243C 10.0934,239.362 11.9268,235.862 14,232.5C 14.3333,230.833 14.6667,229.167 15,227.5C 18.3333,223.5 21.6667,219.5 25,215.5C 33.4551,206.869 42.6217,199.203 52.5,192.5C 52.5,193.167 52.5,193.833 52.5,194.5C 50.2009,195.778 47.8676,197.111 45.5,198.5C 40.152,204.015 34.652,209.348 29,214.5C 25.0607,220.064 20.8941,225.397 16.5,230.5C 15.1667,231.833 15.1667,233.167 16.5,234.5C 21.1947,229.474 25.8613,224.474 30.5,219.5C 31.2811,220.729 31.7811,222.062 32,223.5C 34.8333,220.667 37.6667,217.833 40.5,215C 47.3323,211.076 53.6656,206.41 59.5,201C 69.5777,196.299 79.2444,191.132 88.5,185.5C 92.3163,184.38 95.9829,184.38 99.5,185.5 Z"/></g>
<g><path style="opacity:1" fill="#7e36ae" d="M 159.5,242.5 C 155.016,246.597 150.682,250.93 146.5,255.5C 145.167,256.5 143.833,257.5 142.5,258.5C 143.543,255.944 145.21,253.777 147.5,252C 147.272,251.601 146.938,251.435 146.5,251.5C 150.598,248.664 150.098,247.998 145,249.5C 143.618,247.419 141.951,247.085 140,248.5C 135.127,245.538 130.127,242.872 125,240.5C 122.099,243.318 119.599,242.984 117.5,239.5C 112.011,238.376 107.011,236.209 102.5,233C 96.1969,224.905 93.5302,215.072 94.5,203.5C 93.5,203.5 92.5,203.5 91.5,203.5C 92.0476,201.606 93.0476,199.94 94.5,198.5C 94.7776,206.435 96.2776,214.102 99,221.5C 102.829,225.937 107.162,229.937 112,233.5C 115.821,232.772 118.988,234.105 121.5,237.5C 126.393,238.222 131.06,239.555 135.5,241.5C 139.938,239.304 144.105,239.97 148,243.5C 151.813,240.392 155.646,240.059 159.5,242.5 Z"/></g>
<g><path style="opacity:1" fill="#7933ad" d="M 91.5,203.5 C 92.5,203.5 93.5,203.5 94.5,203.5C 93.5302,215.072 96.1969,224.905 102.5,233C 107.011,236.209 112.011,238.376 117.5,239.5C 119.599,242.984 122.099,243.318 125,240.5C 130.127,242.872 135.127,245.538 140,248.5C 141.951,247.085 143.618,247.419 145,249.5C 150.098,247.998 150.598,248.664 146.5,251.5C 143.965,253.167 141.132,254.167 138,254.5C 131.718,253.51 125.551,252.01 119.5,250C 118.363,247.281 116.53,246.781 114,248.5C 107.39,245.219 102.057,240.552 98,234.5C 97,232.5 96,230.5 95,228.5C 93.427,223.527 92.2603,218.527 91.5,213.5C 91.5,212.167 90.8333,211.5 89.5,211.5C 90.3705,208.888 91.0372,206.221 91.5,203.5 Z"/></g>
<g><path style="opacity:0.106" fill="#4a1c8d" d="M 5.5,242.5 C 2.72327,245.978 1.88993,249.978 3,254.5C 3.95603,255.894 5.28937,256.561 7,256.5C 12.14,255.135 17.14,253.468 22,251.5C 23.8524,249.114 26.3524,247.947 29.5,248C 36.1017,244.201 42.7684,240.701 49.5,237.5C 56.1626,236.167 62.8293,234.834 69.5,233.5C 72.6922,233.621 75.8589,233.954 79,234.5C 80.7873,233.437 82.6207,232.937 84.5,233C 86.887,238.94 88.2203,245.107 88.5,251.5C 85.8668,248.53 83.2002,245.53 80.5,242.5C 78.4758,245.647 76.1424,247.647 73.5,248.5C 73.317,246.064 73.9837,243.897 75.5,242C 68.0717,243.053 61.9051,246.553 57,252.5C 56.5674,255.419 57.0674,258.086 58.5,260.5C 59.4408,262.05 60.1075,263.716 60.5,265.5C 59.5,265.5 58.5,265.5 57.5,265.5C 51.8331,258.676 52.1664,252.176 58.5,246C 63.9785,243.334 69.3118,240.501 74.5,237.5C 73.5,237.167 72.5,236.833 71.5,236.5C 64.4262,237.681 57.4262,239.181 50.5,241C 37.6504,247.257 24.6504,253.257 11.5,259C 8.5,259.667 5.5,259.667 2.5,259C 1.36362,257.855 0.363622,256.688 -0.5,255.5C -0.5,252.5 -0.5,249.5 -0.5,246.5C 1.83333,242.5 4.16667,238.5 6.5,234.5C 8.01739,234.489 9.18405,233.823 10,232.5C 10.1667,232.833 10.3333,233.167 10.5,233.5C 8.04599,236.076 6.37932,239.076 5.5,242.5 Z"/></g>
<g><path style="opacity:1" fill="#5928a3" d="M 49.5,237.5 C 42.7684,240.701 36.1017,244.201 29.5,248C 26.3524,247.947 23.8524,249.114 22,251.5C 17.14,253.468 12.14,255.135 7,256.5C 5.28937,256.561 3.95603,255.894 3,254.5C 1.88993,249.978 2.72327,245.978 5.5,242.5C 6.0716,244.119 6.40493,245.785 6.5,247.5C 8.16667,246.167 9.83333,246.167 11.5,247.5C 12.6223,246.37 13.9557,245.703 15.5,245.5C 16.2506,246.573 17.2506,246.74 18.5,246C 22.6015,241.725 27.6015,239.559 33.5,239.5C 33.5,238.5 33.5,237.5 33.5,236.5C 36.7086,236.411 39.8752,236.744 43,237.5C 44.3261,237.245 45.3261,236.578 46,235.5C 47.1127,236.305 48.2794,236.972 49.5,237.5 Z"/></g>
<g><path style="opacity:1" fill="#6d2ea8" d="M 89.5,211.5 C 90.8333,211.5 91.5,212.167 91.5,213.5C 90.7845,224.847 93.6179,235.181 100,244.5C 108.926,251.709 118.926,257.042 130,260.5C 132.505,259.578 135.005,259.078 137.5,259C 136.619,259.708 135.953,260.542 135.5,261.5C 119.982,262.687 107.149,257.687 97,246.5C 92.8586,238.65 90.0252,230.317 88.5,221.5C 87.7261,220.289 86.8928,220.289 86,221.5C 85.3923,223.154 84.8923,224.821 84.5,226.5C 81.9353,227.31 79.4353,227.643 77,227.5C 70.9012,225.078 64.5679,223.411 58,222.5C 55.6003,223.044 53.267,223.711 51,224.5C 50.6012,224.272 50.4346,223.938 50.5,223.5C 53.8072,219.666 57.9739,218.666 63,220.5C 65.8224,219.725 68.6557,219.058 71.5,218.5C 73.4546,219.323 75.4546,219.49 77.5,219C 76.1667,218.333 76.1667,217.667 77.5,217C 79.1667,216.667 80.8333,216.333 82.5,216C 82.1667,215.667 81.8333,215.333 81.5,215C 83.2694,213.981 84.9361,213.814 86.5,214.5C 87.735,213.66 88.735,212.66 89.5,211.5 Z"/></g>
<g><path style="opacity:1" fill="#6529a4" d="M 135.5,261.5 C 136.097,261.735 136.43,262.235 136.5,263C 133.944,267.454 132.944,272.287 133.5,277.5C 132.065,276.087 131.065,274.42 130.5,272.5C 130.5,272.167 130.5,271.833 130.5,271.5C 130.5,269.833 130.5,268.167 130.5,266.5C 120.421,268.584 111.088,266.751 102.5,261C 92.0202,251.594 86.5202,239.761 86,225.5C 85.6174,226.056 85.1174,226.389 84.5,226.5C 84.8923,224.821 85.3923,223.154 86,221.5C 86.8928,220.289 87.7261,220.289 88.5,221.5C 90.0252,230.317 92.8586,238.65 97,246.5C 107.149,257.687 119.982,262.687 135.5,261.5 Z"/></g>
<g><path style="opacity:0.999" fill="#61299a" d="M 194.5,247.5 C 191.334,259.486 186.5,270.819 180,281.5C 179.235,283.066 179.402,284.399 180.5,285.5C 175.753,293.52 171.753,301.853 168.5,310.5C 167.791,309.596 166.791,309.263 165.5,309.5C 160.29,324.088 151.957,336.588 140.5,347C 139,347.5 137.5,348 136,348.5C 135.235,348.43 134.735,348.097 134.5,347.5C 136.932,346.25 139.266,344.75 141.5,343C 142.252,342.329 142.586,341.496 142.5,340.5C 143.075,338.589 144.075,336.922 145.5,335.5C 147.735,332.709 149.735,329.709 151.5,326.5C 154.097,322.966 156.43,319.3 158.5,315.5C 162.039,314.11 163.873,311.443 164,307.5C 165.154,306.257 166.488,305.257 168,304.5C 170.988,298.173 173.988,291.84 177,285.5C 179.239,277.659 180.406,269.659 180.5,261.5C 181.139,257.203 182.139,252.87 183.5,248.5C 185.834,248.597 188,247.597 190,245.5C 192.09,246.791 193.424,246.124 194,243.5C 194.49,244.793 194.657,246.127 194.5,247.5 Z"/></g>
<g><path style="opacity:0.999" fill="#642db0" d="M 73.5,248.5 C 69.2405,252.271 65.4072,256.605 62,261.5C 60.9887,260.663 59.8221,260.33 58.5,260.5C 57.0674,258.086 56.5674,255.419 57,252.5C 61.9051,246.553 68.0717,243.053 75.5,242C 73.9837,243.897 73.317,246.064 73.5,248.5 Z"/></g>
<g><path style="opacity:1" fill="#995dc1" d="M 170.5,234.5 C 172.483,234.157 173.817,234.824 174.5,236.5C 172.61,236.297 171.11,236.963 170,238.5C 168.125,241.588 166.792,244.921 166,248.5C 165.603,263.305 164.103,277.972 161.5,292.5C 161.846,293.696 162.346,293.696 163,292.5C 166.167,285.849 169,279.183 171.5,272.5C 170.815,276.726 169.815,280.893 168.5,285C 168.851,288.104 169.351,287.937 170,284.5C 170.69,283.262 171.19,283.262 171.5,284.5C 169.32,292.521 166.32,300.188 162.5,307.5C 161.503,307.53 160.836,307.03 160.5,306C 161.856,304.433 162.523,302.6 162.5,300.5C 161.325,300.281 160.325,300.614 159.5,301.5C 156.922,307.807 153.756,313.807 150,319.5C 148.658,320.902 147.824,320.569 147.5,318.5C 156.155,296.219 160.322,273.219 160,249.5C 161.751,247.51 162.751,245.177 163,242.5C 166.184,240.456 168.684,237.79 170.5,234.5 Z"/></g>
<g><path style="opacity:1" fill="#5e34a1" d="M 88.5,251.5 C 89.8333,252.833 91.1667,254.167 92.5,255.5C 92.6309,256.376 92.2975,257.043 91.5,257.5C 89.8513,256.352 88.3513,255.019 87,253.5C 82.8619,255.327 78.6952,257.16 74.5,259C 72.2528,260.277 70.2528,261.777 68.5,263.5C 66.9397,263.481 65.4397,263.148 64,262.5C 62.4009,263.071 61.2342,264.071 60.5,265.5C 60.1075,263.716 59.4408,262.05 58.5,260.5C 59.8221,260.33 60.9887,260.663 62,261.5C 65.4072,256.605 69.2405,252.271 73.5,248.5C 76.1424,247.647 78.4758,245.647 80.5,242.5C 83.2002,245.53 85.8668,248.53 88.5,251.5 Z"/></g>
<g><path style="opacity:1" fill="#9051bf" d="M 170.5,234.5 C 168.684,237.79 166.184,240.456 163,242.5C 162.751,245.177 161.751,247.51 160,249.5C 160.322,273.219 156.155,296.219 147.5,318.5C 147.824,320.569 148.658,320.902 150,319.5C 153.756,313.807 156.922,307.807 159.5,301.5C 160.325,300.614 161.325,300.281 162.5,300.5C 162.523,302.6 161.856,304.433 160.5,306C 160.836,307.03 161.503,307.53 162.5,307.5C 160.642,309.883 159.308,312.55 158.5,315.5C 156.43,319.3 154.097,322.966 151.5,326.5C 150.072,324.205 150.572,322.205 153,320.5C 153.667,319.5 153.667,318.5 153,317.5C 149.954,320.385 147.454,323.718 145.5,327.5C 144.391,328.59 143.391,328.59 142.5,327.5C 147.574,313.442 151.574,299.109 154.5,284.5C 153.68,282.889 152.346,282.222 150.5,282.5C 150.16,277.954 149.493,273.454 148.5,269C 149.167,266 149.833,263 150.5,260C 150.355,259.228 150.022,258.561 149.5,258C 153.413,252.728 157.413,247.561 161.5,242.5C 162.167,241.167 163.167,240.167 164.5,239.5C 165.885,237.117 167.885,235.45 170.5,234.5 Z"/></g>
<g><path style="opacity:0.559" fill="#4c1980" d="M 196.5,241.5 C 196.366,243.292 196.699,244.958 197.5,246.5C 194.709,258.761 190.209,270.427 184,281.5C 183.051,283.093 181.885,284.426 180.5,285.5C 179.402,284.399 179.235,283.066 180,281.5C 186.5,270.819 191.334,259.486 194.5,247.5C 195.167,245.5 195.833,243.5 196.5,241.5 Z"/></g>
<g><path style="opacity:1" fill="#6938ae" d="M 92.5,255.5 C 95.0599,257.273 97.3932,259.273 99.5,261.5C 101.561,266.63 100.561,270.963 96.5,274.5C 92.4829,270.324 87.9829,266.657 83,263.5C 78.7893,264.565 75.1226,266.565 72,269.5C 71.6174,268.944 71.1174,268.611 70.5,268.5C 70.0825,267.778 69.4158,267.278 68.5,267C 71.1247,265.624 71.1247,264.458 68.5,263.5C 70.2528,261.777 72.2528,260.277 74.5,259C 78.6952,257.16 82.8619,255.327 87,253.5C 88.3513,255.019 89.8513,256.352 91.5,257.5C 92.2975,257.043 92.6309,256.376 92.5,255.5 Z"/></g>
<g><path style="opacity:1" fill="#8749bc" d="M 159.5,242.5 C 160.167,242.5 160.833,242.5 161.5,242.5C 157.413,247.561 153.413,252.728 149.5,258C 150.022,258.561 150.355,259.228 150.5,260C 149.833,263 149.167,266 148.5,269C 149.493,273.454 150.16,277.954 150.5,282.5C 152.346,282.222 153.68,282.889 154.5,284.5C 151.574,299.109 147.574,313.442 142.5,327.5C 143.391,328.59 144.391,328.59 145.5,327.5C 147.454,323.718 149.954,320.385 153,317.5C 153.667,318.5 153.667,319.5 153,320.5C 150.572,322.205 150.072,324.205 151.5,326.5C 149.735,329.709 147.735,332.709 145.5,335.5C 144.842,334.602 144.176,333.602 143.5,332.5C 142.109,334.89 140.109,336.557 137.5,337.5C 137.167,337 136.833,336.5 136.5,336C 138.604,326.43 140.937,316.93 143.5,307.5C 143.43,306.228 143.097,305.062 142.5,304C 143.8,295.918 144.8,287.751 145.5,279.5C 143.117,273.702 143.117,267.868 145.5,262C 145.095,261.055 144.428,260.388 143.5,260C 145.141,258.871 146.141,257.371 146.5,255.5C 150.682,250.93 155.016,246.597 159.5,242.5 Z"/></g>
<g><path style="opacity:1" fill="#a368c5" d="M 174.5,236.5 C 175.653,242.319 175.819,248.319 175,254.5C 174.187,259.815 173.521,265.148 173,270.5C 172.722,271.416 172.222,272.082 171.5,272.5C 169,279.183 166.167,285.849 163,292.5C 162.346,293.696 161.846,293.696 161.5,292.5C 164.103,277.972 165.603,263.305 166,248.5C 166.792,244.921 168.125,241.588 170,238.5C 171.11,236.963 172.61,236.297 174.5,236.5 Z"/></g>
<g><path style="opacity:1" fill="#6d45ad" d="M 99.5,261.5 C 103.272,263.934 107.272,265.934 111.5,267.5C 112.473,269.068 112.64,270.735 112,272.5C 110.314,276.865 108.147,281.032 105.5,285C 104.69,288.792 104.356,292.625 104.5,296.5C 102.738,296.643 101.071,296.309 99.5,295.5C 98.6143,296.325 98.281,297.325 98.5,298.5C 82.108,290.763 68.4413,279.763 57.5,265.5C 58.5,265.5 59.5,265.5 60.5,265.5C 61.2342,264.071 62.4009,263.071 64,262.5C 65.4397,263.148 66.9397,263.481 68.5,263.5C 71.1247,264.458 71.1247,265.624 68.5,267C 69.4158,267.278 70.0825,267.778 70.5,268.5C 70.0825,269.222 69.4158,269.722 68.5,270C 70.3333,271.167 72.1667,272.333 74,273.5C 73.7821,275.587 73.9488,277.587 74.5,279.5C 77.9343,283.269 81.9343,286.269 86.5,288.5C 87.354,287.478 88.354,286.645 89.5,286C 92.89,285.256 96.2233,284.423 99.5,283.5C 99.2591,280.185 98.2591,277.185 96.5,274.5C 100.561,270.963 101.561,266.63 99.5,261.5 Z"/></g>
<g><path style="opacity:1" fill="#7443ba" d="M 96.5,274.5 C 98.2591,277.185 99.2591,280.185 99.5,283.5C 96.2233,284.423 92.89,285.256 89.5,286C 88.354,286.645 87.354,287.478 86.5,288.5C 81.9343,286.269 77.9343,283.269 74.5,279.5C 73.9488,277.587 73.7821,275.587 74,273.5C 72.1667,272.333 70.3333,271.167 68.5,270C 69.4158,269.722 70.0825,269.222 70.5,268.5C 71.1174,268.611 71.6174,268.944 72,269.5C 75.1226,266.565 78.7893,264.565 83,263.5C 87.9829,266.657 92.4829,270.324 96.5,274.5 Z"/></g>
<g><path style="opacity:1" fill="#381677" d="M 130.5,271.5 C 130.5,271.833 130.5,272.167 130.5,272.5C 130.5,273.833 130.5,275.167 130.5,276.5C 129.685,275.571 128.852,274.571 128,273.5C 127.965,282.012 126.798,290.346 124.5,298.5C 120.229,299.504 116.229,300.837 112.5,302.5C 108.956,302.868 105.956,301.868 103.5,299.5C 102.537,298.637 102.537,297.97 103.5,297.5C 105.409,298.348 107.409,298.682 109.5,298.5C 110.561,288.872 112.561,279.539 115.5,270.5C 119.042,270.62 122.542,270.286 126,269.5C 127.833,269.519 129.333,270.185 130.5,271.5 Z"/></g>
<g><path style="opacity:1" fill="#7c39ab" d="M 176.5,235.5 C 178.262,238.503 179.428,241.837 180,245.5C 180.499,250.823 180.666,256.156 180.5,261.5C 180.406,269.659 179.239,277.659 177,285.5C 173.988,291.84 170.988,298.173 168,304.5C 166.488,305.257 165.154,306.257 164,307.5C 163.873,311.443 162.039,314.11 158.5,315.5C 159.308,312.55 160.642,309.883 162.5,307.5C 166.32,300.188 169.32,292.521 171.5,284.5C 173.179,280.353 174.679,276.02 176,271.5C 176.5,259.505 176.667,247.505 176.5,235.5 Z"/></g>
<g><path style="opacity:1" fill="#522a9b" d="M 111.5,267.5 C 113.632,267.554 114.965,268.554 115.5,270.5C 112.561,279.539 110.561,288.872 109.5,298.5C 107.409,298.682 105.409,298.348 103.5,297.5C 102.537,297.97 102.537,298.637 103.5,299.5C 101.784,299.371 100.117,299.038 98.5,298.5C 98.281,297.325 98.6143,296.325 99.5,295.5C 101.071,296.309 102.738,296.643 104.5,296.5C 104.356,292.625 104.69,288.792 105.5,285C 108.147,281.032 110.314,276.865 112,272.5C 112.64,270.735 112.473,269.068 111.5,267.5 Z"/></g>
<g><path style="opacity:0.404" fill="#271264" d="M 130.5,276.5 C 130.433,277.959 130.766,279.292 131.5,280.5C 130.552,286.069 129.386,291.735 128,297.5C 124.143,302.928 118.977,304.594 112.5,302.5C 116.229,300.837 120.229,299.504 124.5,298.5C 126.798,290.346 127.965,282.012 128,273.5C 128.852,274.571 129.685,275.571 130.5,276.5 Z"/></g>
<g><path style="opacity:0.361" fill="#5a2798" d="M 130.5,272.5 C 131.065,274.42 132.065,276.087 133.5,277.5C 133.911,282.338 134.578,287.005 135.5,291.5C 134.555,308.881 133.222,326.214 131.5,343.5C 130.566,344.568 130.232,345.901 130.5,347.5C 129.778,347.082 129.278,346.416 129,345.5C 128.833,343 128.667,340.5 128.5,338C 130.49,324.402 131.823,310.736 132.5,297C 132.254,291.489 131.921,285.989 131.5,280.5C 130.766,279.292 130.433,277.959 130.5,276.5C 130.5,275.167 130.5,273.833 130.5,272.5 Z"/></g>
<g><path style="opacity:0.414" fill="#491d8b" d="M 168.5,310.5 C 162.375,325.916 153.375,339.416 141.5,351C 138.118,351.824 134.784,351.657 131.5,350.5C 130.873,349.583 130.539,348.583 130.5,347.5C 130.232,345.901 130.566,344.568 131.5,343.5C 131.738,345.404 132.738,346.738 134.5,347.5C 134.735,348.097 135.235,348.43 136,348.5C 137.5,348 139,347.5 140.5,347C 151.957,336.588 160.29,324.088 165.5,309.5C 166.791,309.263 167.791,309.596 168.5,310.5 Z"/></g>
<g><path style="opacity:1" fill="#6832b3" d="M 135.5,291.5 C 136.94,295.406 137.606,299.573 137.5,304C 136.434,314.659 135.434,325.325 134.5,336C 134.833,338.167 135.167,340.333 135.5,342.5C 137.51,340.829 139.843,340.162 142.5,340.5C 142.586,341.496 142.252,342.329 141.5,343C 139.266,344.75 136.932,346.25 134.5,347.5C 132.738,346.738 131.738,345.404 131.5,343.5C 133.222,326.214 134.555,308.881 135.5,291.5 Z"/></g>
<g><path style="opacity:1" fill="#793eb9" d="M 146.5,255.5 C 146.141,257.371 145.141,258.871 143.5,260C 144.428,260.388 145.095,261.055 145.5,262C 143.117,267.868 143.117,273.702 145.5,279.5C 144.8,287.751 143.8,295.918 142.5,304C 143.097,305.062 143.43,306.228 143.5,307.5C 140.937,316.93 138.604,326.43 136.5,336C 136.833,336.5 137.167,337 137.5,337.5C 140.109,336.557 142.109,334.89 143.5,332.5C 144.176,333.602 144.842,334.602 145.5,335.5C 144.075,336.922 143.075,338.589 142.5,340.5C 139.843,340.162 137.51,340.829 135.5,342.5C 135.167,340.333 134.833,338.167 134.5,336C 135.434,325.325 136.434,314.659 137.5,304C 137.606,299.573 136.94,295.406 135.5,291.5C 136.625,284.187 136.625,277.02 135.5,270C 137.191,265.802 139.524,261.968 142.5,258.5C 143.833,257.5 145.167,256.5 146.5,255.5 Z"/></g>
</svg>
