<?xml version="1.0" standalone="no"?>
<!DOCTYPE svg PUBLIC "-//W3C//DTD SVG 20010904//EN"
 "http://www.w3.org/TR/2001/REC-SVG-20010904/DTD/svg10.dtd">
<svg version="1.0" xmlns="http://www.w3.org/2000/svg"
 width="512.000000pt" height="512.000000pt" viewBox="0 0 512.000000 512.000000"
 preserveAspectRatio="xMidYMid meet">

<g transform="translate(0.000000,512.000000) scale(0.100000,-0.100000)"
fill="#000000" stroke="none">
<path d="M4725 5099 c-313 -33 -614 -88 -882 -161 l-114 -32 295 -295 295
-295 28 24 28 25 -27 -30 -28 -31 299 -298 c240 -240 300 -295 305 -280 108
356 196 883 196 1175 0 136 -2 142 -59 184 -33 23 -42 25 -145 24 -61 -1 -147
-5 -191 -10z"/>
<path d="M3165 3896 c-138 -32 -238 -89 -332 -189 -108 -116 -165 -260 -166
-422 -1 -175 57 -320 181 -445 174 -175 415 -232 645 -152 439 151 570 709
242 1034 -73 72 -166 129 -260 158 -89 27 -229 35 -310 16z m261 -336 c103
-47 165 -140 172 -260 5 -98 -21 -171 -83 -234 -70 -69 -124 -91 -225 -91
-100 0 -156 23 -226 93 -117 116 -110 334 13 443 101 88 224 106 349 49z"/>
<path d="M1480 3770 c-536 -58 -1044 -393 -1400 -925 -66 -98 -77 -160 -40
-221 42 -67 55 -69 550 -100 245 -14 447 -28 450 -31 2 -2 -55 -63 -127 -136
-72 -73 -136 -142 -142 -154 -14 -27 -14 -93 0 -130 5 -15 295 -313 642 -662
468 -469 643 -638 675 -653 33 -15 54 -18 85 -13 37 6 59 24 184 147 l142 141
5 -34 c3 -19 17 -225 31 -458 14 -234 30 -433 36 -445 37 -71 108 -105 179
-86 124 33 500 355 661 565 176 230 298 492 349 753 24 121 36 360 23 464 l-8
67 -75 -60 c-229 -184 -622 -408 -928 -528 l-49 -19 -732 732 -732 732 29 69
c130 314 304 624 486 863 47 61 81 114 77 116 -16 10 -291 14 -371 6z"/>
</g>
</svg>
