<?xml version="1.0" encoding="UTF-8"?>
<!DOCTYPE svg PUBLIC "-//W3C//DTD SVG 1.1//EN" "http://www.w3.org/Graphics/SVG/1.1/DTD/svg11.dtd">
<svg xmlns="http://www.w3.org/2000/svg" version="1.1" width="315px" height="215px" style="shape-rendering:geometricPrecision; text-rendering:geometricPrecision; image-rendering:optimizeQuality; fill-rule:evenodd; clip-rule:evenodd" xmlns:xlink="http://www.w3.org/1999/xlink">
<g><path style="opacity:1" fill="#cccfd4" d="M 239.5,5.5 C 246.852,15.5339 253.186,26.2005 258.5,37.5C 258.586,38.4959 258.252,39.3292 257.5,40C 251.599,43.1179 245.599,45.9512 239.5,48.5C 226.694,30.2453 210.36,26.4119 190.5,37C 177.256,48.3143 173.589,62.1476 179.5,78.5C 158.085,90.5406 136.085,101.541 113.5,111.5C 109.271,104.726 104.771,98.0596 100,91.5C 91.0292,82.2084 82.5292,72.5418 74.5,62.5C 67.1667,70.1667 59.8333,77.8333 52.5,85.5C 53.7467,88.3286 55.2467,90.9952 57,93.5C 57.4935,95.1341 57.6602,96.8008 57.5,98.5C 39.6691,110.145 21.6691,121.645 3.5,133C 2.36495,133.749 1.36495,133.583 0.5,132.5C 9.30522,110.86 18.8052,89.5268 29,68.5C 32.0624,62.7696 35.8957,57.6029 40.5,53C 53.948,46.1426 65.2814,48.9759 74.5,61.5C 109.072,28.4889 150.072,10.3223 197.5,7C 211.48,5.91103 225.48,5.41103 239.5,5.5 Z"/></g>
<g><path style="opacity:1" fill="#9088c1" d="M 239.5,5.5 C 263.822,6.21322 288.489,7.87988 313.5,10.5C 313.631,11.3764 313.298,12.0431 312.5,12.5C 295.5,21 278.5,29.5 261.5,38C 260.748,38.6708 260.414,39.5041 260.5,40.5C 259.833,39.5 259.167,38.5 258.5,37.5C 253.186,26.2005 246.852,15.5339 239.5,5.5 Z"/></g>
<g><path style="opacity:1" fill="#7c73b4" d="M 313.5,10.5 C 313.833,10.5 314.167,10.5 314.5,10.5C 314.5,11.5 314.5,12.5 314.5,13.5C 302.287,34.0392 289.287,54.0392 275.5,73.5C 270.333,62.7026 265.333,51.7026 260.5,40.5C 260.414,39.5041 260.748,38.6708 261.5,38C 278.5,29.5 295.5,21 312.5,12.5C 313.298,12.0431 313.631,11.3764 313.5,10.5 Z"/></g>
<g><path style="opacity:1" fill="#9089c0" d="M 239.5,48.5 C 245.896,65.0298 242.563,79.1964 229.5,91C 208.852,101.838 192.185,97.6716 179.5,78.5C 173.589,62.1476 177.256,48.3143 190.5,37C 210.36,26.4119 226.694,30.2453 239.5,48.5 Z"/></g>
<g><path style="opacity:0.999" fill="#b3b8bc" d="M 258.5,37.5 C 259.167,38.5 259.833,39.5 260.5,40.5C 265.333,51.7026 270.333,62.7026 275.5,73.5C 256.071,102.096 232.404,126.596 204.5,147C 181.685,160.819 157.352,169.819 131.5,174C 131.167,174.333 130.833,174.667 130.5,175C 136.189,190.155 131.189,200.822 115.5,207C 111.167,207.667 106.833,207.667 102.5,207C 77.7943,202.96 53.461,197.46 29.5,190.5C 33.505,187.874 37.8383,185.707 42.5,184C 59.0951,177.858 75.7618,172.024 92.5,166.5C 94.977,169.438 96.977,172.771 98.5,176.5C 99.5,176.833 100.5,177.167 101.5,177.5C 111.266,176.296 120.933,174.629 130.5,172.5C 127.338,158.518 124.172,144.518 121,130.5C 118.962,124.197 116.462,118.197 113.5,112.5C 113.5,112.167 113.5,111.833 113.5,111.5C 136.085,101.541 158.085,90.5406 179.5,78.5C 192.185,97.6716 208.852,101.838 229.5,91C 242.563,79.1964 245.896,65.0298 239.5,48.5C 245.599,45.9512 251.599,43.1179 257.5,40C 258.252,39.3292 258.586,38.4959 258.5,37.5 Z"/></g>
<g><path style="opacity:1" fill="#3e3957" d="M 203.5,40.5 C 220.512,39.1925 230.512,46.8592 233.5,63.5C 232.904,75.5435 226.904,83.3768 215.5,87C 197.903,88.8995 188.236,81.0661 186.5,63.5C 187.213,52.1267 192.88,44.46 203.5,40.5 Z"/></g>
<g><path style="opacity:1" fill="#8c84bc" d="M 209.5,52.5 C 216.827,51.3293 219.994,54.3293 219,61.5C 215.61,65.0324 211.943,65.3658 208,62.5C 205.729,58.6965 206.229,55.3632 209.5,52.5 Z"/></g>
<g><path style="opacity:0.999" fill="#9189c2" d="M 113.5,111.5 C 113.5,111.833 113.5,112.167 113.5,112.5C 110.63,113.078 108.963,114.745 108.5,117.5C 107.833,116.833 107.167,116.167 106.5,115.5C 103.718,109.579 99.051,105.746 92.5,104C 88.5,103.333 84.5,103.333 80.5,104C 75.3314,107.022 70.3314,110.189 65.5,113.5C 63.0717,108.307 60.405,103.307 57.5,98.5C 57.6602,96.8008 57.4935,95.1341 57,93.5C 55.2467,90.9952 53.7467,88.3286 52.5,85.5C 59.8333,77.8333 67.1667,70.1667 74.5,62.5C 82.5292,72.5418 91.0292,82.2084 100,91.5C 104.771,98.0596 109.271,104.726 113.5,111.5 Z"/></g>
<g><path style="opacity:1" fill="#8c84bc" d="M 206.5,68.5 C 208.167,68.5 209.833,68.5 211.5,68.5C 212.169,72.6759 210.669,74.0093 207,72.5C 206.51,71.2068 206.343,69.8734 206.5,68.5 Z"/></g>
<g><path style="opacity:1" fill="#cccfd4" d="M 106.5,115.5 C 76.9438,131.113 47.2772,145.78 17.5,159.5C 32.3842,143.288 48.3842,127.955 65.5,113.5C 70.3314,110.189 75.3314,107.022 80.5,104C 84.5,103.333 88.5,103.333 92.5,104C 99.051,105.746 103.718,109.579 106.5,115.5 Z"/></g>
<g><path style="opacity:1" fill="#7d74b5" d="M 113.5,112.5 C 116.462,118.197 118.962,124.197 121,130.5C 124.172,144.518 127.338,158.518 130.5,172.5C 120.933,174.629 111.266,176.296 101.5,177.5C 100.5,177.167 99.5,176.833 98.5,176.5C 96.977,172.771 94.977,169.438 92.5,166.5C 89.8333,161.167 87.1667,155.833 84.5,150.5C 84.6107,149.883 84.944,149.383 85.5,149C 104.27,146.418 111.937,135.918 108.5,117.5C 108.963,114.745 110.63,113.078 113.5,112.5 Z"/></g>
<g><path style="opacity:0.998" fill="#b3b8bc" d="M 106.5,115.5 C 107.167,116.167 107.833,116.833 108.5,117.5C 111.937,135.918 104.27,146.418 85.5,149C 84.944,149.383 84.6107,149.883 84.5,150.5C 62.4348,155.415 40.4348,159.415 18.5,162.5C 13.9978,162.062 13.6645,161.062 17.5,159.5C 47.2772,145.78 76.9438,131.113 106.5,115.5 Z"/></g>
</svg>
