<?xml version="1.0" encoding="UTF-8"?>
<!DOCTYPE svg PUBLIC "-//W3C//DTD SVG 1.1//EN" "http://www.w3.org/Graphics/SVG/1.1/DTD/svg11.dtd">
<svg xmlns="http://www.w3.org/2000/svg" version="1.1" width="285px" height="270px" style="shape-rendering:geometricPrecision; text-rendering:geometricPrecision; image-rendering:optimizeQuality; fill-rule:evenodd; clip-rule:evenodd" xmlns:xlink="http://www.w3.org/1999/xlink">
<g><path style="opacity:1" fill="#9088c1" d="M 274.5,9.5 C 274.611,10.1174 274.944,10.6174 275.5,11C 264.167,21 252.833,31 241.5,41C 237.561,44.4294 234.228,48.2628 231.5,52.5C 230.728,51.3065 229.728,50.3065 228.5,49.5C 220.473,40.8063 212.14,32.4729 203.5,24.5C 226.901,18.3528 250.568,13.3528 274.5,9.5 Z"/></g>
<g><path style="opacity:1" fill="#7d74b4" d="M 274.5,9.5 C 275.586,9.61998 276.253,10.2867 276.5,11.5C 270.138,35.2475 262.805,58.5808 254.5,81.5C 247.214,71.5455 239.547,61.8788 231.5,52.5C 234.228,48.2628 237.561,44.4294 241.5,41C 252.833,31 264.167,21 275.5,11C 274.944,10.6174 274.611,10.1174 274.5,9.5 Z"/></g>
<g><path style="opacity:1" fill="#cccfd4" d="M 203.5,24.5 C 212.14,32.4729 220.473,40.8063 228.5,49.5C 228.414,50.4959 228.748,51.3292 229.5,52C 224.324,57.0744 218.99,61.9078 213.5,66.5C 209.205,62.3449 204.205,59.1783 198.5,57C 177.847,53.0705 164.014,60.9038 157,80.5C 154.445,92.1576 156.945,102.491 164.5,111.5C 146.355,128.068 128.022,144.401 109.5,160.5C 104.236,155.2 98.5698,150.367 92.5,146C 81.0133,138.67 69.68,131.17 58.5,123.5C 78.7306,86.7717 108.064,59.9383 146.5,43C 165.041,35.3194 184.041,29.1528 203.5,24.5 Z"/></g>
<g><path style="opacity:0.999" fill="#b3b8bc" d="M 228.5,49.5 C 229.728,50.3065 230.728,51.3065 231.5,52.5C 239.547,61.8788 247.214,71.5455 254.5,81.5C 243.456,114.595 226.956,144.595 205,171.5C 186.866,190.117 166.033,205.117 142.5,216.5C 151.588,229.757 149.588,241.59 136.5,252C 132.943,253.408 129.276,254.408 125.5,255C 100.08,257.673 74.7464,259.006 49.5,259C 48.5419,257.853 48.8753,256.853 50.5,256C 67.7354,243.249 85.0687,230.749 102.5,218.5C 106.464,220.965 109.964,223.965 113,227.5C 122.365,223.397 131.865,219.731 141.5,216.5C 135.893,203.952 129.726,191.619 123,179.5C 119.021,173.033 114.521,167.033 109.5,161.5C 109.5,161.167 109.5,160.833 109.5,160.5C 128.022,144.401 146.355,128.068 164.5,111.5C 178.564,123.484 193.564,124.651 209.5,115C 220.178,105.477 224.011,93.6439 221,79.5C 219.503,74.5231 217.003,70.1897 213.5,66.5C 218.99,61.9078 224.324,57.0744 229.5,52C 228.748,51.3292 228.414,50.4959 228.5,49.5 Z"/></g>
<g><path style="opacity:1" fill="#9088c0" d="M 213.5,66.5 C 217.003,70.1897 219.503,74.5231 221,79.5C 224.011,93.6439 220.178,105.477 209.5,115C 193.564,124.651 178.564,123.484 164.5,111.5C 156.945,102.491 154.445,92.1576 157,80.5C 164.014,60.9038 177.847,53.0705 198.5,57C 204.205,59.1783 209.205,62.3449 213.5,66.5 Z"/></g>
<g><path style="opacity:1" fill="#3e3957" d="M 183.5,65.5 C 203.147,64.6474 212.647,73.9808 212,93.5C 207.802,107.68 198.302,113.846 183.5,112C 169.616,107.08 163.783,97.2469 166,82.5C 169.144,73.8534 174.977,68.1867 183.5,65.5 Z"/></g>
<g><path style="opacity:1" fill="#8d85bd" d="M 187.5,76.5 C 197.334,76.1289 199.667,79.9622 194.5,88C 188.648,90.0395 185.315,88.0395 184.5,82C 184.863,79.8077 185.863,77.9744 187.5,76.5 Z"/></g>
<g><path style="opacity:1" fill="#8880b7" d="M 188.5,92.5 C 192.35,92.7007 193.35,94.5341 191.5,98C 187.537,98.1177 186.537,96.2843 188.5,92.5 Z"/></g>
<g><path style="opacity:0.999" fill="#cccfd4" d="M 57.5,123.5 C 52.9796,132.707 48.3129,141.874 43.5,151C 45.6149,154.118 48.1149,156.952 51,159.5C 51.4828,160.448 51.6495,161.448 51.5,162.5C 37.2461,178.429 22.9128,194.429 8.5,210.5C 7.67504,211.386 6.67504,211.719 5.5,211.5C 8.43941,184.53 12.9394,157.53 19,130.5C 26.8174,115.894 38.3174,112.061 53.5,119C 55.0414,120.371 56.3747,121.871 57.5,123.5 Z"/></g>
<g><path style="opacity:0.999" fill="#9189c2" d="M 57.5,123.5 C 57.8333,123.5 58.1667,123.5 58.5,123.5C 69.68,131.17 81.0133,138.67 92.5,146C 98.5698,150.367 104.236,155.2 109.5,160.5C 109.5,160.833 109.5,161.167 109.5,161.5C 106.956,162.708 105.622,164.708 105.5,167.5C 104.833,166.833 104.167,166.167 103.5,165.5C 97.4361,159.426 90.1028,157.26 81.5,159C 78.5544,159.806 75.8877,161.139 73.5,163C 70.0311,166.812 66.6977,170.645 63.5,174.5C 59.8604,170.194 55.8604,166.194 51.5,162.5C 51.6495,161.448 51.4828,160.448 51,159.5C 48.1149,156.952 45.6149,154.118 43.5,151C 48.3129,141.874 52.9796,132.707 57.5,123.5 Z"/></g>
<g><path style="opacity:1" fill="#ccced4" d="M 103.5,165.5 C 79.1038,188.899 54.1038,211.566 28.5,233.5C 28.8923,231.821 29.3923,230.154 30,228.5C 40.9271,210.304 52.0938,192.304 63.5,174.5C 66.6977,170.645 70.0311,166.812 73.5,163C 75.8877,161.139 78.5544,159.806 81.5,159C 90.1028,157.26 97.4361,159.426 103.5,165.5 Z"/></g>
<g><path style="opacity:1" fill="#7d75b5" d="M 109.5,161.5 C 114.521,167.033 119.021,173.033 123,179.5C 129.726,191.619 135.893,203.952 141.5,216.5C 131.865,219.731 122.365,223.397 113,227.5C 109.964,223.965 106.464,220.965 102.5,218.5C 98.5959,214.352 94.9292,210.019 91.5,205.5C 93.5102,202.973 96.1769,201.139 99.5,200C 110.323,190.703 112.323,179.87 105.5,167.5C 105.622,164.708 106.956,162.708 109.5,161.5 Z"/></g>
<g><path style="opacity:0.997" fill="#b3b8bc" d="M 103.5,165.5 C 104.167,166.167 104.833,166.833 105.5,167.5C 112.323,179.87 110.323,190.703 99.5,200C 96.1769,201.139 93.5102,202.973 91.5,205.5C 70.7494,215.625 49.916,225.625 29,235.5C 27.282,234.969 27.1153,234.302 28.5,233.5C 54.1038,211.566 79.1038,188.899 103.5,165.5 Z"/></g>
</svg>
