<?xml version="1.0" encoding="UTF-8"?>
<!DOCTYPE svg PUBLIC "-//W3C//DTD SVG 1.1//EN" "http://www.w3.org/Graphics/SVG/1.1/DTD/svg11.dtd">
<svg xmlns="http://www.w3.org/2000/svg" version="1.1" width="512px" height="512px" style="shape-rendering:geometricPrecision; text-rendering:geometricPrecision; image-rendering:optimizeQuality; fill-rule:evenodd; clip-rule:evenodd" xmlns:xlink="http://www.w3.org/1999/xlink">
<g><path style="opacity:0.987" fill="#fe5b5b" d="M 479.5,-0.5 C 487.167,-0.5 494.833,-0.5 502.5,-0.5C 504.869,0.689986 506.869,2.35665 508.5,4.5C 482.19,29.1434 456.523,54.4767 431.5,80.5C 411.167,60.8333 391.167,40.8333 371.5,20.5C 406.8,9.83925 442.8,2.83925 479.5,-0.5 Z"/></g>
<g><path style="opacity:1" fill="#fe1a3d" d="M 508.5,4.5 C 509.728,5.30646 510.728,6.30646 511.5,7.5C 511.5,19.1667 511.5,30.8333 511.5,42.5C 508.038,75.8073 501.372,108.474 491.5,140.5C 471.5,120.833 451.5,101.167 431.5,81.5C 431.5,81.1667 431.5,80.8333 431.5,80.5C 456.523,54.4767 482.19,29.1434 508.5,4.5 Z"/></g>
<g><path style="opacity:0.996" fill="#e0f0f9" d="M 371.5,20.5 C 391.167,40.8333 411.167,60.8333 431.5,80.5C 431.5,80.8333 431.5,81.1667 431.5,81.5C 411.551,99.782 392.217,118.782 373.5,138.5C 353.139,120.883 330.139,116.383 304.5,125C 270.174,143.491 259.008,171.324 271,208.5C 274.183,215.547 278.35,221.88 283.5,227.5C 255.5,256.167 227.167,284.5 198.5,312.5C 174.167,288.833 150.167,264.833 126.5,240.5C 140.856,201.767 160.856,166.434 186.5,134.5C 223.749,91.0133 269.082,58.5133 322.5,37C 338.478,30.3962 354.811,24.8962 371.5,20.5 Z"/></g>
<g><path style="opacity:1" fill="#cceafb" d="M 431.5,81.5 C 451.5,101.167 471.5,120.833 491.5,140.5C 474.337,204.017 443.337,259.517 398.5,307C 391.629,313.375 384.629,319.542 377.5,325.5C 345.304,350.943 309.97,371.276 271.5,386.5C 247.5,361.833 223.167,337.5 198.5,313.5C 198.5,313.167 198.5,312.833 198.5,312.5C 227.167,284.5 255.5,256.167 283.5,227.5C 283.833,227.5 284.167,227.5 284.5,227.5C 304.439,246.921 327.439,251.421 353.5,241C 381.334,227.134 393.834,204.634 391,173.5C 388.558,160.28 382.725,148.946 373.5,139.5C 373.5,139.167 373.5,138.833 373.5,138.5C 392.217,118.782 411.551,99.782 431.5,81.5 Z"/></g>
<g><path style="opacity:1" fill="#1c3c6b" d="M 373.5,138.5 C 373.5,138.833 373.5,139.167 373.5,139.5C 366.167,146.5 358.833,153.5 351.5,160.5C 351.167,160.5 350.833,160.5 350.5,160.5C 333.491,147.384 317.658,148.717 303,164.5C 295.074,178.69 295.908,192.357 305.5,205.5C 305.5,205.833 305.5,206.167 305.5,206.5C 298.833,213.833 291.833,220.833 284.5,227.5C 284.167,227.5 283.833,227.5 283.5,227.5C 278.35,221.88 274.183,215.547 271,208.5C 259.008,171.324 270.174,143.491 304.5,125C 330.139,116.383 353.139,120.883 373.5,138.5 Z"/></g>
<g><path style="opacity:0.985" fill="#fe5b5b" d="M 186.5,134.5 C 160.856,166.434 140.856,201.767 126.5,240.5C 118.78,248.224 110.78,255.557 102.5,262.5C 71.4111,261.203 40.4111,259.036 9.5,256C 1.44339,251.53 -1.38994,244.697 1,235.5C 25.8749,192.96 61.0416,162.127 106.5,143C 132.499,133.556 159.166,130.723 186.5,134.5 Z"/></g>
<g><path style="opacity:1" fill="#001136" d="M 373.5,139.5 C 382.725,148.946 388.558,160.28 391,173.5C 393.834,204.634 381.334,227.134 353.5,241C 327.439,251.421 304.439,246.921 284.5,227.5C 291.833,220.833 298.833,213.833 305.5,206.5C 309.262,208.413 312.929,210.579 316.5,213C 341.504,218.344 356.17,208.511 360.5,183.5C 359.974,174.794 356.974,167.127 351.5,160.5C 358.833,153.5 366.167,146.5 373.5,139.5 Z"/></g>
<g><path style="opacity:1" fill="#06caaa" d="M 350.5,160.5 C 335.833,175.833 320.833,190.833 305.5,205.5C 295.908,192.357 295.074,178.69 303,164.5C 317.658,148.717 333.491,147.384 350.5,160.5 Z"/></g>
<g><path style="opacity:1" fill="#1dacb4" d="M 350.5,160.5 C 350.833,160.5 351.167,160.5 351.5,160.5C 356.974,167.127 359.974,174.794 360.5,183.5C 356.17,208.511 341.504,218.344 316.5,213C 312.929,210.579 309.262,208.413 305.5,206.5C 305.5,206.167 305.5,205.833 305.5,205.5C 320.833,190.833 335.833,175.833 350.5,160.5 Z"/></g>
<g><path style="opacity:0.994" fill="#1c3b6a" d="M 126.5,240.5 C 150.167,264.833 174.167,288.833 198.5,312.5C 198.5,312.833 198.5,313.167 198.5,313.5C 180.202,332.299 161.702,350.965 143,369.5C 142.536,370.094 142.369,370.761 142.5,371.5C 142.167,371.5 141.833,371.5 141.5,371.5C 125.116,354.115 108.116,337.448 90.5,321.5C 85.8371,316.669 81.3371,311.669 77,306.5C 73.7348,300.528 73.7348,294.528 77,288.5C 85.7023,279.965 94.2023,271.298 102.5,262.5C 110.78,255.557 118.78,248.224 126.5,240.5 Z"/></g>
<g><path style="opacity:1" fill="#011035" d="M 198.5,313.5 C 223.167,337.5 247.5,361.833 271.5,386.5C 264.167,394.167 256.833,401.833 249.5,409.5C 240.702,417.798 232.035,426.298 223.5,435C 217.472,438.265 211.472,438.265 205.5,435C 200.331,430.663 195.331,426.163 190.5,421.5C 190.631,420.761 190.464,420.094 190,419.5C 173.965,403.632 158.132,387.632 142.5,371.5C 142.369,370.761 142.536,370.094 143,369.5C 161.702,350.965 180.202,332.299 198.5,313.5 Z"/></g>
<g><path style="opacity:0.986" fill="#fef160" d="M 90.5,321.5 C 108.116,337.448 125.116,354.115 141.5,371.5C 107.529,403.804 74.1953,436.804 41.5,470.5C 37.4884,466.807 35.8217,462.141 36.5,456.5C 38.7765,410.158 53.6099,368.492 81,331.5C 84.3709,328.297 87.5375,324.964 90.5,321.5 Z"/></g>
<g><path style="opacity:0.985" fill="#fe193d" d="M 377.5,325.5 C 383.127,370.66 372.627,411.66 346,448.5C 326.731,473.943 303.564,494.943 276.5,511.5C 272.833,511.5 269.167,511.5 265.5,511.5C 259.951,509.467 256.451,505.467 255,499.5C 252.834,469.517 251.001,439.517 249.5,409.5C 256.833,401.833 264.167,394.167 271.5,386.5C 309.97,371.276 345.304,350.943 377.5,325.5 Z"/></g>
<g><path style="opacity:1" fill="#fcbf01" d="M 141.5,371.5 C 141.833,371.5 142.167,371.5 142.5,371.5C 158.132,387.632 173.965,403.632 190,419.5C 190.464,420.094 190.631,420.761 190.5,421.5C 160.756,448.722 125.756,465.556 85.5,472C 75.5546,473.642 65.5546,474.809 55.5,475.5C 49.8594,476.178 45.1927,474.512 41.5,470.5C 74.1953,436.804 107.529,403.804 141.5,371.5 Z"/></g>
</svg>
